<svg width="40" height="40" viewBox="0 0 40 40" fill="none" xmlns="http://www.w3.org/2000/svg">
<rect width="40" height="40" fill="#C6D300"/>
<path d="M14 10.715V9H15.676V10.715H14ZM14 11.715H15.676V18.694H14V11.715Z" fill="#1D1C58"/>
<path d="M18.676 18.715H17V11.731H18.622V12.984C19.149 12.227 19.892 11.539 20.906 11.539C21.095 11.539 21.19 11.552 21.298 11.579V13.16C21.162 13.134 20.906 13.134 20.811 13.134C20.04 13.134 18.676 13.851 18.676 15.256V18.715Z" fill="#1D1C58"/>
<path d="M11.469 18.733L11.28 17.99C10.875 18.353 10.213 18.882 9.159 18.882C7.903 18.882 7.01001 18.072 7.01001 16.949C7.01001 16.219 7.26599 15.368 8.82199 14.839L10.836 14.166C11.119 14.07 11.146 14.057 11.146 13.854V13.57C11.146 12.976 10.605 12.799 9.957 12.799C8.849 12.799 7.83599 13.474 7.44299 13.744V12.286C7.88899 12.027 8.75499 11.557 10.214 11.557C12.391 11.557 12.821 12.651 12.821 13.989V18.733H11.469ZM9.65799 15.731C8.95599 15.988 8.71201 16.313 8.71201 16.814C8.71201 17.516 9.31901 17.666 9.61801 17.666C9.88801 17.666 10.469 17.57 11.144 16.883V15.153C11.051 15.233 11.01 15.248 10.711 15.356L9.65799 15.731Z" fill="#1D1C58"/>
<path d="M7 29.385V20.715H9.78C10.512 20.715 12.997 20.715 12.997 22.832C12.997 24.287 11.862 24.678 11.283 24.879C11.945 25.057 13.199 25.412 13.199 27.008C13.199 28.32 12.206 29.385 9.98199 29.385H7ZM8.63199 24.252H9.78C11.259 24.252 11.388 23.365 11.388 23.08C11.388 21.994 10.264 21.994 9.923 21.994H8.633L8.63199 24.252ZM8.63199 28.108H9.64899C10.737 28.108 11.517 27.754 11.517 26.819C11.517 26.205 11.187 25.507 9.755 25.507H8.63199V28.108Z" fill="#1D1C58"/>
<path d="M17.594 29.385L17.418 28.696C17.042 29.036 16.426 29.524 15.448 29.524C14.281 29.524 13.452 28.772 13.452 27.729C13.452 27.051 13.691 26.262 15.134 25.772L17.004 25.145C17.268 25.057 17.293 25.043 17.293 24.856V24.592C17.293 24.041 16.791 23.877 16.189 23.877C15.16 23.877 14.218 24.504 13.854 24.754V23.4C14.269 23.162 15.071 22.721 16.426 22.721C18.447 22.721 18.848 23.738 18.848 24.98V29.383L17.594 29.385ZM15.912 26.6C15.259 26.838 15.033 27.139 15.033 27.604C15.033 28.256 15.598 28.395 15.875 28.395C16.125 28.395 16.665 28.307 17.293 27.668V26.061C17.205 26.135 17.167 26.149 16.891 26.25L15.912 26.6Z" fill="#1D1C58"/>
<path d="M19.489 29.385H21.046V20.715H19.489V29.385Z" fill="#1D1C58"/>
<path d="M22.339 24.041H21.391V22.859H22.339V20.715H23.897V22.86H25.077V24.043H23.897V27.342C23.897 27.82 23.959 28.258 24.674 28.258C24.862 28.258 25 28.234 25.124 28.209V29.387C24.925 29.411 24.711 29.441 24.396 29.441C22.665 29.441 22.337 28.574 22.337 27.432L22.339 24.041Z" fill="#1D1C58"/>
<path d="M25.677 22.272V20.715H27.235V22.272H25.677ZM25.677 29.385V22.86H27.235V29.385H25.677Z" fill="#1D1C58"/>
<path d="M32.874 24.617C32.561 24.353 32.059 23.939 31.18 23.939C29.85 23.939 29.298 25.055 29.298 26.123C29.298 26.574 29.424 28.307 31.13 28.307C32.022 28.307 32.6 27.905 33 27.618V28.998C32.688 29.161 31.982 29.524 30.879 29.524C28.658 29.524 27.731 27.856 27.731 26.125C27.731 24.317 28.748 22.725 30.956 22.725C32.022 22.725 32.601 23.051 32.876 23.203L32.874 24.617Z" fill="#1D1C58"/>
</svg>
