<svg width="40" height="40" viewBox="0 0 40 40" fill="none" xmlns="http://www.w3.org/2000/svg">
<rect width="40" height="40" fill="#0097DA"/>
<path fill-rule="evenodd" clip-rule="evenodd" d="M15.16 19.585C15.16 20.5345 14.7828 21.4451 14.1114 22.1164C13.4401 22.7878 12.5295 23.165 11.58 23.165C10.6305 23.165 9.71994 22.7878 9.04856 22.1164C8.37718 21.4451 8 20.5345 8 19.585C8 18.6355 8.37718 17.7249 9.04856 17.0536C9.71994 16.3822 10.6305 16.005 11.58 16.005C12.5295 16.005 13.4401 16.3822 14.1114 17.0536C14.7828 17.7249 15.16 18.6355 15.16 19.585Z" fill="white"/>
<path fill-rule="evenodd" clip-rule="evenodd" d="M23.77 19.585C23.77 20.5358 23.3923 21.4477 22.72 22.12C22.0476 22.7923 21.1358 23.17 20.185 23.17C19.2342 23.17 18.3223 22.7923 17.65 22.12C16.9777 21.4477 16.6 20.5358 16.6 19.585C16.6 18.6342 16.9777 17.7223 17.65 17.05C18.3223 16.3777 19.2342 16 20.185 16C21.1358 16 22.0476 16.3777 22.72 17.05C23.3923 17.7223 23.77 18.6342 23.77 19.585Z" fill="white" fill-opacity="0.7"/>
<path fill-rule="evenodd" clip-rule="evenodd" d="M32.37 19.585C32.37 20.5358 31.9923 21.4477 31.32 22.12C30.6477 22.7923 29.7358 23.17 28.785 23.17C27.8342 23.17 26.9224 22.7923 26.25 22.12C25.5777 21.4477 25.2 20.5358 25.2 19.585C25.2 18.6342 25.5777 17.7223 26.25 17.05C26.9224 16.3777 27.8342 16 28.785 16C29.7358 16 30.6477 16.3777 31.32 17.05C31.9923 17.7223 32.37 18.6342 32.37 19.585Z" fill="white" fill-opacity="0.4"/>
</svg>
