<svg width="40" height="40" viewBox="0 0 40 40" fill="none" xmlns="http://www.w3.org/2000/svg">
<rect width="40" height="40" fill="white"/>
<rect width="40" height="40" fill="#C4C4C4"/>
<rect width="40" height="40" fill="#D71A21"/>
<g clip-path="url(#clip0)">
<path d="M40.7999 -1.70732H1V39.1682H40.7999V-1.70732Z" fill="#D71A21"/>
<path d="M22.6545 8.42833C22.4039 8.74353 22.2647 9.13078 22.2647 9.52703C22.2647 9.66212 22.2647 12.8592 22.2647 12.9762C22.2461 13.2374 22.144 13.4806 21.977 13.6877C21.8842 13.7778 21.3366 14.2551 21.2902 14.3091L21.5964 14.3181C21.6985 14.228 22.7566 13.3185 22.8587 13.1924C23.165 12.8682 23.3413 12.4449 23.3413 12.0036C23.3413 11.8595 23.3413 8.82458 23.3413 8.68949C23.332 8.35628 23.462 8.02307 23.7033 7.77991C23.8332 7.64483 24.2416 7.31161 24.3158 7.23056L23.991 7.22155C23.926 7.30261 22.7659 8.32026 22.6545 8.42833Z" fill="white"/>
<path d="M20.0465 20.9734L21.3366 22.0631H22.1997C23.0257 22.0631 23.8239 21.7479 24.4086 21.1805C24.9377 20.6672 25.1326 19.9737 25.1326 19.3253V17.5332C25.1233 17.1279 24.9469 16.7407 24.6314 16.4705C24.5757 16.4164 24.1952 16.0652 24.1952 16.0652V17.4431C24.1952 17.4431 24.6128 17.8574 24.6871 17.9384C25.0676 18.3347 25.0676 19.0551 23.8518 20.1989C23.6383 20.397 23.035 20.9553 22.1997 20.9553L20.0465 20.9734Z" fill="white"/>
<path d="M23.6383 13.6156C23.4991 13.7597 23.3599 14.12 23.3599 14.4442V15.1196H24.0653C24.3437 15.1196 24.7057 14.8765 24.7799 14.7504C24.7799 14.7414 24.7799 14.0749 24.7799 14.0749C24.882 14.219 25.0119 14.3541 25.1604 14.4622C25.2347 14.3721 25.8844 13.6156 26.4227 13.6066C27.3229 13.5976 27.1188 14.7053 26.7568 15.0566C26.6361 15.1736 26.1071 15.6419 25.94 15.795C25.5131 16.1913 24.7799 16.0022 24.7799 14.9845C24.7799 14.9845 24.0003 15.705 23.8796 15.804C23.759 15.9031 23.3599 16.3174 23.3599 16.3174V18.1095C23.3599 18.9651 23.0722 19.2533 22.8309 19.5144C22.738 19.6135 21.745 20.4961 21.6057 20.5951L21.2809 20.6041C21.2809 20.6041 21.8656 20.0908 21.977 19.9737C22.1069 19.8386 22.2647 19.5685 22.2647 19.1182C22.2647 19.0011 22.2461 16.3084 22.2461 16.3084H17.7169C16.1391 16.3084 15.805 14.6153 15.7957 14.156C15.7957 14.0209 15.7957 12.67 15.7957 12.4539C15.7957 12.1747 15.6101 11.7064 15.3224 11.5623H15.7679C15.8236 11.5803 16.102 11.6884 16.102 12.7331C16.102 12.7331 16.0834 13.9399 16.0834 14.0119C16.0834 14.5432 16.5197 15.1466 17.1415 15.1466L22.2647 15.1376C22.2647 15.0025 22.4039 14.4982 22.6545 14.228C22.7937 14.0749 23.8982 13.1023 24.0188 13.0033H24.3437C24.2973 13.0483 23.759 13.5076 23.6476 13.6337L23.6383 13.6156ZM25.3182 14.6333C25.4481 14.8044 25.5966 14.9755 25.7544 15.1286C26.3113 15.5609 26.5712 15.0926 26.1999 14.6063C26.0514 14.4082 25.4853 14.4622 25.3182 14.6333Z" fill="white"/>
<path d="M19.8238 17.8394C19.8238 18.0825 19.0349 18.7219 18.9885 18.7579C18.9328 18.4968 18.7286 18.2176 18.1439 17.6412L19.007 16.8037C19.5918 17.3711 19.8238 17.4971 19.8238 17.8394Z" fill="white"/>
<path d="M21.3273 8.21219C21.5037 8.3833 21.8749 8.83359 21.6522 9.05873C21.4573 9.24785 21.151 9.55405 21.151 9.55405C21.1324 9.44598 20.8447 9.1758 20.8447 9.1758C20.8447 9.1758 20.8447 9.98632 20.8447 10.0854C20.8354 10.4546 20.6962 10.5537 20.6962 10.5537C20.6962 10.5537 21.3923 11.2201 21.3923 12.0847C21.3923 12.4989 21.3923 12.8862 21.3923 12.9672C21.4016 13.1293 21.3366 13.3004 21.216 13.4175C21.151 13.4896 20.5106 14.12 20.4085 14.201C20.26 14.3271 20.0744 14.3992 19.8795 14.3901H17.4757C17.0951 14.3901 16.7053 14.102 16.7053 13.8138C16.7053 13.7417 16.7146 12.9492 16.7146 12.9492C16.8353 13.0843 16.9652 13.2464 17.2622 13.2464C17.5035 13.2464 17.7448 13.0663 17.8098 12.9943C17.8748 12.9222 19.6289 11.1571 19.6289 11.1571C19.6289 11.1571 18.8121 10.4186 18.2738 10.0674C18.014 9.89627 17.6613 10.1124 17.6056 10.3375C17.4385 11.04 17.6056 12.1027 17.6056 12.1027L16.9466 11.4633C16.6775 11.2021 16.6868 10.6167 17.0116 10.3105C17.058 10.2565 17.5499 9.73416 18.1625 9.73416H19.1184C19.7588 9.73416 20.4642 10.3556 20.4642 10.3556C20.5199 10.2925 20.557 10.2205 20.5663 10.1394C20.5663 9.81521 20.557 8.95967 20.557 8.95967C20.0744 8.49137 20.0094 8.00505 20.2414 7.77991C20.6777 7.35664 20.8354 7.21255 20.8354 7.21255C20.8354 7.21255 20.8169 7.72588 21.3273 8.21219ZM18.311 12.8952C18.0697 13.1383 18.0325 13.1924 17.8098 13.3275H20.5199C21.2531 13.3275 21.1046 12.8862 20.9747 12.661C20.7055 12.2017 19.8516 11.3552 19.8516 11.3552C19.8516 11.3552 18.3574 12.8502 18.311 12.8952Z" fill="white"/>
<path d="M15.2203 15.2907H14.7748C14.7748 15.2907 15.2482 15.5429 15.2482 16.2003V18.2987C15.2482 19.6585 16.4083 20.9193 17.819 20.9193H18.9977C19.7031 20.9193 19.9537 20.7572 20.3806 20.388C20.5384 20.2529 20.7426 20.0278 20.8169 19.9467C21.0582 19.6765 21.3273 19.4604 21.3273 18.7579V18.0735C21.3273 17.4791 20.9746 17.236 20.7983 17.0649C20.6869 16.9568 20.3899 16.6776 20.3899 16.6776V18.0825C20.3899 18.0825 20.6869 18.3887 20.8169 18.4878C21.4294 18.9561 20.9468 19.7666 20.3714 19.7666C20.26 19.7666 17.949 19.7666 17.7819 19.7666C16.8352 19.7846 15.5451 18.9651 15.5451 17.5782V16.4435C15.5544 15.2907 15.2203 15.2907 15.2203 15.2907Z" fill="white"/>
<path d="M18.0604 17.8484C18.0604 18.0915 17.2715 18.7309 17.225 18.767C17.1694 18.5058 16.9652 18.2266 16.3805 17.6502L17.2436 16.8127C17.819 17.3711 18.0604 17.4971 18.0604 17.8484Z" fill="white"/>
<path d="M9.01124 27.1693H7.61906C7.18285 27.1693 7.21997 26.8181 7.17357 26.5209V24.5937C7.17357 24.5937 7.47985 24.5847 7.82325 24.5847C8.20378 24.5847 8.6864 24.5306 9.15046 24.7828C8.90915 24.2875 8.3894 23.9813 7.82325 23.9993H7.18285V23.3779C7.18285 23.3779 7.18285 22.8376 7.04363 22.6845H7.96247C8.75137 22.6845 9.36392 22.6755 10.0043 23.0807C10.0043 23.0807 9.88367 22.0631 8.35228 22.0631H5.36374C5.36374 22.0631 5.88348 22.4953 5.86492 23.3689L5.88348 26.8812C5.88348 27.7637 6.24545 27.7907 6.24545 27.7907H9.18758C9.85582 27.7907 10.0879 27.3314 10.0879 27.0793L10.0971 26.7461C10.0971 26.7461 9.88367 27.1693 9.01124 27.1693Z" fill="white"/>
<path d="M16.8445 26.8721V24.4136C16.8445 23.459 16.0463 23.2068 15.4431 23.2068C14.6542 23.2068 14.4128 23.8462 14.3107 24.0713C14.1344 23.477 13.5126 23.2068 13.0114 23.2068C12.0554 23.2068 11.8141 24.0894 11.8141 24.0894C11.8141 24.0894 11.7955 23.2338 11.0252 23.2338H10.2734C10.2734 23.2338 10.7097 23.4049 10.7097 24.1434V26.8721C10.7097 27.7727 11.0809 27.7907 11.0809 27.7907H12.3246C12.0276 27.5746 11.8512 27.2324 11.8512 26.8631V24.4406C11.8698 24.3325 12.0554 23.9723 12.5844 23.9723C12.8907 23.9723 13.2249 24.2785 13.2156 24.6207V26.8721C13.2156 27.7817 13.5868 27.7907 13.5868 27.7907H14.8305C14.5335 27.5656 14.3572 27.2324 14.3572 26.8631V24.4406C14.4778 24.0894 14.8676 23.8912 15.2389 24.0083C15.5173 24.0984 15.7122 24.3415 15.7215 24.6297C15.7215 24.6297 15.7215 26.683 15.7215 26.8721C15.7308 27.7907 16.0927 27.7817 16.0927 27.7817C16.7424 27.7817 17.3364 27.7817 17.3364 27.7817C17.0301 27.5656 16.8538 27.2324 16.8445 26.8721Z" fill="white"/>
<path d="M19.0163 26.8721C19.0163 27.2324 19.1926 27.5746 19.4896 27.7907C19.4896 27.7907 18.8956 27.7907 18.2459 27.7907C18.2459 27.7907 17.8654 27.7997 17.8654 26.8811V24.1344C17.8654 23.4139 17.4385 23.2248 17.4385 23.2248H18.1903C18.4594 23.2248 19.007 23.2248 19.007 24.2425V26.8541L19.0163 26.8721Z" fill="white"/>
<path d="M22.8401 23.576C22.8401 23.576 22.7194 23.2518 22.209 23.2518C21.4294 23.2518 21.2437 24.1524 21.2437 24.1524C21.1788 23.4409 20.9839 23.2338 20.4363 23.2338H19.6845C19.6845 23.2338 20.1207 23.4049 20.1207 24.1434V26.8721C20.1207 27.7727 20.492 27.7907 20.492 27.7907H21.7356C21.4386 27.5746 21.2623 27.2324 21.2623 26.8721V24.6297C21.2902 24.4406 21.4015 24.2695 21.5686 24.1704C21.9862 23.9002 22.5338 23.9813 22.8587 24.3505L22.8401 23.576Z" fill="white"/>
<path d="M28.6223 23.7381C28.8822 23.7381 29.1328 23.8012 29.3555 23.9182V23.2338H28.316V22.1891C28.0933 22.5314 27.8056 22.8376 27.4807 23.0987C27.1281 23.3779 26.3856 23.7291 26.3856 23.7291L27.1745 23.7381V26.9082C27.1745 27.7907 27.555 27.7907 27.555 27.7907C28.2325 27.7907 28.7894 27.7907 28.7894 27.7907C28.4924 27.5836 28.316 27.2504 28.3068 26.8992V23.7381C28.6409 23.7381 28.4181 23.7381 28.6223 23.7381Z" fill="white"/>
<path d="M32.3905 25.116C31.6944 25.8185 31.1468 25.7104 30.7106 26.2327C30.7106 26.2327 30.7848 26.9352 31.3324 27.1783C31.5181 27.2594 32.2884 27.5296 32.7803 26.701V27.4395C32.7803 27.4395 32.4647 27.7997 31.4531 27.7997C30.2373 27.7997 29.4019 26.8721 29.4019 25.6113C29.4019 24.3685 30.0795 23.2248 31.3696 23.2158C32.6225 23.1978 33.3093 24.1884 32.3905 25.116ZM31.6294 24.8278C31.8336 24.4586 32.0007 23.522 31.2953 23.576C30.4786 23.6391 30.6363 25.7374 30.6363 25.7374C30.9055 25.4492 31.3139 25.3862 31.6294 24.8278Z" fill="white"/>
<path d="M18.4409 22.8646C18.7565 22.8556 18.9978 22.6034 18.9978 22.3062C18.9885 22 18.7286 21.7659 18.4223 21.7659C18.1161 21.7749 17.8655 22.018 17.8655 22.3152C17.8655 22.6214 18.1254 22.8646 18.4409 22.8646Z" fill="white"/>
<path d="M24.1303 27.2684C23.8518 27.2684 23.6476 26.9802 23.6476 26.692C23.6476 25.5573 24.6036 25.3952 24.8635 25.098V27.0162C24.7428 27.1063 24.6315 27.2684 24.1303 27.2684ZM24.8635 24.6567C24.5758 25.143 22.3297 25.2511 22.6731 26.9352C22.8123 27.6016 23.2671 27.7997 23.8426 27.7997C24.3994 27.7997 24.7428 27.5206 24.882 27.2504C24.9656 27.7547 25.2347 27.7907 25.2347 27.7907C25.8844 27.7907 26.4784 27.7907 26.4784 27.7907C26.1814 27.5746 25.9958 27.2414 25.9958 26.8812V24.3145C25.9958 23.7021 25.2997 23.2248 24.5572 23.2248C24.1396 23.2158 23.7405 23.3329 23.3971 23.558V24.3505C23.3971 24.3505 23.6569 23.7201 24.2973 23.7201C24.9285 23.7201 24.9749 24.0263 24.9749 24.1794C24.9841 24.3415 24.9563 24.5126 24.8635 24.6567Z" fill="white"/>
<path d="M35.1378 26.5479C35.147 26.8721 34.85 27.2954 34.2189 27.2954C33.5692 27.2954 33.3094 26.656 33.3094 26.656V27.4665C33.662 27.6827 34.0704 27.7907 34.4881 27.7907C35.3327 27.7907 36.1958 27.1693 36.1772 26.2958C36.168 26.0076 36.0659 25.7284 35.8895 25.5033C35.6018 25.134 35.0821 24.8729 34.6737 24.6297C34.4417 24.4946 34.321 24.2425 34.321 24.1614C34.3117 24.0083 34.3953 23.7021 35.0171 23.7021C35.6297 23.7021 35.8988 24.3325 35.8988 24.3325V23.567C35.5554 23.3329 35.1378 23.2068 34.7108 23.2068C33.9683 23.2068 33.2908 23.6841 33.3094 24.2965C33.3186 24.8368 33.5507 25.1791 34.0055 25.5123C34.2096 25.6564 34.4231 25.7824 34.6459 25.8995C34.9985 26.0886 35.1285 26.3228 35.1378 26.5479Z" fill="white"/>
</g>
<defs>
<clipPath id="clip0">
<rect width="37" height="38" fill="white" transform="translate(1 2)"/>
</clipPath>
</defs>
</svg>
