<svg width="40" height="40" viewBox="0 0 40 40" fill="none" xmlns="http://www.w3.org/2000/svg">
<rect width="40" height="40" fill="#57AD40"/>
<path d="M16.0596 13.9918H18.0987L14.491 26.7741H12.5305L16.0596 13.9918ZM8.13913 26.9302L10.1782 19.2455C10.021 19.2455 9.78632 19.2455 9.70773 19.2455L9.39444 19.1669C9.39444 19.1669 9.31585 19.1669 9.31585 19.0883L9.62913 17.9127H10.6487C11.2763 15.3246 12.1387 13.9132 15.1973 13.9132L14.884 15.1674C13.2368 15.4032 13.0807 16.3441 12.6877 17.9116H14.0205L13.7073 19.1669H12.2948L10.021 28.0283C12.5305 28.5763 13.7062 29.2051 16.6862 28.9682C17.0781 28.5763 17.7057 27.6343 18.019 27.1649C18.4895 26.4597 18.1762 25.0483 18.1762 24.1063C18.0976 22.0672 18.019 20.0282 17.8629 17.9891H19.9806L19.902 24.4982C19.902 24.4982 19.902 24.4196 19.9806 24.4196L20.0591 24.341C20.1377 24.1838 20.1377 24.2624 20.2163 24.1052L23.5882 18.0666H25.3915C25.3129 18.6146 21.4695 24.6543 20.6071 25.986C20.1366 26.8483 19.4304 27.8679 19.0385 28.6538C20.8418 28.7313 25.1557 26.7708 26.4885 26.0646C28.7623 24.8104 30.5656 23.3204 32.0578 21.4374C35.9776 16.5755 33.7814 10.9299 27.1162 10.145C21.4727 9.51848 16.1382 10.9299 11.4335 14.2243C8.68929 16.1847 5.16022 19.8699 6.17975 23.8694C6.41335 25.0483 7.1196 26.4597 8.13913 26.9302Z" fill="white"/>
</svg>
