<svg width="40" height="40" viewBox="0 0 40 40" fill="none" xmlns="http://www.w3.org/2000/svg">
<rect width="40" height="40" fill="#FABA00"/>
<path d="M20.2548 4C11.1742 4 4 11.0695 4 20.0665C4 28.8985 11.1729 36 19.9815 36C28.8862 36 36 28.9182 36 20.0418C36 11.2578 28.896 4 20.2548 4ZM19.9815 34.368C12.0492 34.368 5.66892 27.9606 5.66892 20.0418C5.66892 12.1477 12.1034 5.65538 19.8609 5.65538C28.0074 5.65538 34.3249 12.0012 34.3249 20.0652C34.3262 28.0209 27.8991 34.368 19.9815 34.368ZM16.9895 18.2818L16.6991 18.8529C15.9557 18.7089 15.5791 18.6782 13.0018 17.9852L12.6215 18.8222L13.1902 19.1434C15.2529 20.1994 15.9028 20.4197 17.088 20.4197C19.4622 20.4197 21.2628 19.0954 22.0911 16.7175C23.5422 16.4185 25.1409 16.3077 27.3846 16.3077C29.3095 16.3077 31.2628 16.3729 33.4178 16.6498L32.8505 17.3157C31.8806 17.1963 30.0394 17.0658 28.7372 17.0658C27.1569 17.0658 26.1908 17.1126 25.6677 17.1163L25.4018 17.7058C26.7175 17.6406 27.1988 17.6406 28.2191 17.6406C29.9508 17.6406 31.3182 17.7058 32.4542 17.792L31.9151 18.5218C29.8905 18.4394 28.9674 18.4172 27.4449 18.4172C26.6265 18.4172 26.0258 18.4394 25.0523 18.4812L24.7729 19.0683C25.6246 19.008 26.8074 18.9625 28.0591 18.9625C29.2505 18.9625 30.656 19.0055 31.4769 19.0129L30.9415 19.7218C30.3643 19.6862 29.2517 19.6862 28.3594 19.6862C27.0326 19.6862 25.2714 19.7551 24.4 19.8818L24.1305 20.3963C25.7514 20.2388 26.8074 20.176 28.5723 20.176C29.2726 20.176 29.7268 20.176 30.528 20.2388L29.8462 21.2308C28.7643 21.152 27.7982 21.2308 27.3846 21.2308C24.3778 21.2308 23.1975 21.3218 21.2308 22.4615C24.9231 24.9231 26.1538 24.9231 29.8462 24.9231L28.6154 27.3846C21.3895 25.4585 19.7452 24.4185 13.1249 20.4862C10.5022 19.008 8.36431 17.9594 6.62892 17.4708L6.85662 16.6511C7.28 16.7151 8.15262 16.9698 8.99446 17.2603L9.584 15.9015L16.9895 18.2818Z" fill="#00225F"/>
</svg>
