<svg width="40" height="40" viewBox="0 0 40 40" fill="none" xmlns="http://www.w3.org/2000/svg">
<rect width="40" height="40" fill="#1A3171"/>
<path d="M17.927 16C15.495 16 13.524 17.9659 13.524 20.3902C13.524 20.9805 13.688 21.5346 13.972 22.0068H10.978L12.703 16H9.503L7 24.7805H19.089C21.521 24.7805 23.492 22.8146 23.492 20.3902C23.492 19.8 23.329 19.2468 23.045 18.7746H26.049L24.329 24.7044L27.53 24.7054L29.25 18.7746H32.224L32.999 16H17.927ZM18.502 22.2146C17.492 22.2146 16.673 21.3971 16.673 20.3902C16.673 19.3834 17.492 18.5668 18.502 18.5668C19.512 18.5668 20.33 19.3834 20.33 20.3902C20.33 21.3971 19.512 22.2146 18.502 22.2146Z" fill="white"/>
</svg>
