<svg width="40" height="40" viewBox="0 0 40 40" fill="none" xmlns="http://www.w3.org/2000/svg">
<rect width="40" height="40" fill="#DC2C34"/>
<path d="M30.8782 9.68529C30.7979 8.73261 29.968 7.97655 28.9876 8.00056C21.4225 8.17318 14.0336 10.53 7.78583 14.7146C6.97623 15.2565 6.76852 16.3596 7.27348 17.159C8.09231 18.457 8.97022 19.6885 9.92475 20.8793L11.0205 16.4713C11.1258 16.091 11.3824 15.8362 11.7203 15.6829C12.0941 15.5103 12.6277 15.3737 13.3902 15.3838H13.7262L13.4622 16.307L15.8725 15.3838H17.7604L17.3967 16.9421H14.6503C13.8241 16.9643 13.2065 17.3991 13.0293 18.1256H13.0283L12.6286 19.6949L12.6259 19.7097C12.6176 19.7586 12.4772 20.3319 12.4745 20.379C12.4449 20.5627 12.4837 20.7907 12.6176 20.9929C12.7496 21.1941 12.985 21.3603 13.3875 21.412C13.4631 21.4212 16.2944 21.4193 16.2944 21.4193L15.8532 22.7921H11.6159C15.014 26.4911 19.1663 29.6602 23.807 31.8305C24.6775 32.2358 25.7612 31.8896 26.22 31.0542C27.6398 28.4657 28.6996 25.5993 29.5 22.7754H28.5944L28.6322 21.8957C28.6285 21.7997 28.5445 21.7849 28.5057 21.7868H26.5007C26.3687 21.7849 26.3225 21.8163 26.2782 21.9169L25.764 22.7764H22.9687L26.8579 15.3848H31.0019C31.0019 15.3848 31.0388 11.6174 30.8782 9.68529ZM24.1937 16.9347H21.3274C20.539 16.9209 20.3673 17.7729 20.8778 18.084L22.7121 19.4235C24.2261 20.5442 23.2752 22.7671 20.9461 22.7699H16.4163L16.8428 21.3861H19.7571C20.7532 21.3907 21.2378 20.5331 20.5261 20.0549C19.8273 19.5758 19.374 19.1946 18.6817 18.7099C17.2785 17.7332 17.9736 15.3977 20.3276 15.3848H24.5399L24.1937 16.9347Z" fill="white"/>
<path d="M28.3479 17.3963L26.9401 20.4658C26.8819 20.5858 26.918 20.7012 27.0241 20.6919H28.4365C28.5584 20.6846 28.5971 20.5904 28.5842 20.4427L28.4928 17.4037C28.4891 17.2976 28.3968 17.2892 28.3479 17.3963Z" fill="white"/>
</svg>
