<svg width="40" height="40" viewBox="0 0 40 40" fill="none" xmlns="http://www.w3.org/2000/svg">
<rect width="40" height="40" fill="#013E7F"/>
<path d="M21.8032 22.1988C21.8797 22.1587 21.9535 22.1185 22.0272 22.0747L22.0627 22.0551C22.0785 22.0448 22.0935 22.0355 22.1093 22.0261L22.1532 21.9981L22.45 22.4788C22.3221 22.5628 22.1877 22.6393 22.0468 22.7103L22.5984 23.8573L21.8919 24.1252L21.3431 22.9875C20.9025 23.1209 20.4256 23.1937 19.9244 23.1937C19.4204 23.1937 18.9388 23.1209 18.4964 22.9847L17.9159 24.1252L17.2616 23.8853L17.7889 22.7009C17.6424 22.6263 17.5015 22.5441 17.3699 22.4555L17.6779 21.9841C18.3144 22.3957 19.0891 22.6375 19.9235 22.6375C20.2408 22.6375 20.5497 22.602 20.8447 22.5367C20.896 22.5273 20.9539 22.5152 21.0229 22.4937C21.3804 22.3939 21.5783 22.3136 21.8032 22.1988ZM22.9185 18.3152V18.2592C22.9185 16.6193 21.8135 15.2641 20.378 15.0476L20.4116 15C22.1224 15.0999 23.4841 16.4924 23.5877 18.3152H22.9185ZM23.5215 19.2887C23.3245 20.2845 22.7431 21.1348 21.9469 21.6668C21.5895 21.8973 21.1863 22.0737 20.7775 22.1736C20.5255 22.2305 20.266 22.2613 19.9991 22.2613C18.2715 22.2613 16.8304 20.9976 16.4851 19.3157L7.40467 19.6676L6 18.6129H16.4057L17.0432 18.6073C17.2009 20.2351 18.4516 21.5044 19.9729 21.5044C20.1867 21.5044 20.3948 21.4792 20.5955 21.4316L19.2907 18.7231L18.3508 19.1543L17.8384 17.9363L20.2697 16.8275L21.2423 17.8271L19.9767 18.4067L21.2992 21.1553C22.1765 20.6681 22.8019 19.7087 22.9036 18.5821H23.5943L34 18.6129L32.5944 19.6667L23.5215 19.2887ZM23.1752 21.0788L26.2561 22.266L24.7161 22.6179L22.7701 21.5371L23.1752 21.0788ZM16.7837 21.0788L13.7028 22.266L15.2428 22.6179L17.1879 21.5371L16.7837 21.0788ZM23.6335 20.2537L28.9329 21.3075L27.0952 22.0112L23.3637 20.7129L23.6335 20.2537ZM16.3516 20.2537L11.054 21.3075L12.8917 22.0112L16.6223 20.7129L16.3516 20.2537ZM23.8248 19.5575L31.6107 20.1529L29.8532 21.0452L23.7175 19.9905L23.8248 19.5575ZM16.1892 19.5575L8.4052 20.1529L10.1627 21.0452L16.2975 19.9905L16.1892 19.5575Z" fill="white"/>
</svg>
