<svg width="40" height="40" viewBox="0 0 40 40" fill="none" xmlns="http://www.w3.org/2000/svg">
<rect width="40" height="40" fill="#FF6600"/>
<path d="M29.5881 26.8524C29.3221 26.8524 29.0921 27.0924 28.7891 27.0924C28.3532 27.0924 28.1472 26.8524 28.1472 26.3714V24.1665C28.1472 23.8655 28.2452 23.8785 28.5461 23.8655L29.4901 23.8305C29.9021 23.8185 29.9871 23.7946 29.9871 23.3516V22.8226C29.9871 22.4996 29.9261 22.4876 29.5751 22.4876H28.2311V21.9366C28.2311 21.2156 28.2072 20.9996 27.6632 20.9996C27.0822 20.9996 26.3072 21.5396 25.0233 22.4266C24.4663 22.8106 24.2973 22.8466 24.2973 23.3026C24.2973 23.8415 24.3813 23.8066 25.2653 23.8295V26.7564C25.2653 28.2064 26.0392 28.9754 27.4812 28.9754C28.9331 28.9754 29.9991 28.1584 29.9991 27.5364C30.0001 27.1044 29.8071 26.8524 29.5881 26.8524Z" fill="white"/>
<path d="M20.6915 25.8935H23.4264C23.8994 25.8935 24.1044 25.6535 24.1044 24.9695C24.1044 23.5065 22.8814 22.3326 21.0665 22.3326C19.9405 22.3326 18.8876 22.8586 18.2336 23.7705C17.8226 24.3455 17.6046 25.0165 17.6046 25.7015C17.6046 27.5484 19.0076 29.0004 21.0055 29.0004C21.8045 29.0004 22.5184 28.7824 23.1354 28.3744C23.6444 28.0394 23.8994 27.6554 23.8994 27.3554C23.8994 26.9834 23.6694 26.7324 23.3904 26.7324C23.0764 26.7324 22.6034 27.2584 21.8285 27.2584C20.9695 27.2584 20.3155 26.5994 20.3155 26.0605C20.3165 25.9175 20.4255 25.8935 20.6915 25.8935ZM20.2795 24.3585C20.2795 23.8785 20.6555 23.5056 21.0665 23.5056C21.4655 23.5056 21.9745 23.8225 21.9585 24.2895C21.9375 24.8935 20.7275 24.6925 20.7275 24.6925C20.3895 24.6935 20.2795 24.6705 20.2795 24.3585Z" fill="white"/>
<path d="M14.5907 20.0007C12.9077 20.0007 12.1208 20.2417 12.1208 21.0007C12.1208 21.4096 12.3388 21.4946 12.6418 21.6266C13.0537 21.7956 13.1018 21.9156 13.1018 22.6026V25.9875C13.1018 26.8804 12.7757 27.3484 12.2668 27.3484C12.0738 27.3484 11.9398 27.2164 11.9398 27.0484C11.9398 26.8194 12.0248 26.5895 12.0248 26.3725C12.0248 25.6015 11.4438 25.0235 10.6088 25.0235C9.79787 25.0235 9.2049 25.6265 9.2049 26.5285C9.2049 27.9744 10.5008 29.0004 12.5828 29.0004C14.3497 29.0004 15.4757 28.3004 15.9106 26.9504C16.1776 26.1315 16.0677 24.6625 16.1406 22.6016C16.1646 21.9876 16.1646 21.7946 16.5646 21.5656C16.8546 21.3976 17.0366 21.3126 17.0366 20.8797C17.0356 20.1817 16.2856 20.0007 14.5907 20.0007Z" fill="white"/>
<path d="M11.7868 15.4939C11.4728 15.4939 10.9928 15.9228 10.2249 16.0308C8.8129 16.2298 8.4169 15.3589 8.4169 14.8089C8.4169 14.6629 8.8209 14.6389 9.08689 14.6389H11.8228C12.2948 14.6389 12.5008 14.3939 12.5008 13.6979C12.5008 12.209 11.2778 11.012 9.46289 11.012C8.33593 11.012 7.28296 11.55 6.62998 12.4779C6.218 13.0639 6 13.7479 6 14.4439C6 16.3228 7.40395 17.8018 9.40088 17.8018C10.1998 17.8018 10.9148 17.5798 11.5318 17.1648C12.0408 16.8228 12.2948 16.4328 12.2948 16.1268C12.2958 15.7498 12.0648 15.4939 11.7868 15.4939ZM9.46389 12.209C9.86188 12.209 10.3138 12.525 10.3138 13.0009C10.3138 13.6259 9.39889 13.4459 9.39889 13.4459C8.83492 13.4589 8.5639 13.3399 8.5639 13.0209C8.5629 12.5329 9.05191 12.209 9.46389 12.209Z" fill="white"/>
<path d="M19.5595 15.9448C19.2075 15.8468 19.1955 15.6758 19.1955 14.7859V14.6019C19.1955 14.1999 19.2325 13.7229 19.2325 13.1859C19.2325 11.757 18.2146 11 16.2916 11C14.4387 11 13.2658 11.757 13.2658 12.5869C13.2658 13.0509 13.5917 13.3809 14.0157 13.3809C14.4147 13.3809 14.7307 13.1729 15.0807 12.7459C15.3587 12.403 15.5407 12.099 15.9037 12.099C16.2917 12.099 16.4356 12.453 16.4356 13.2339C16.4356 13.4179 16.4236 13.6139 16.4116 13.8449C16.0127 13.7719 15.6977 13.7359 15.4437 13.7359C13.9297 13.7359 12.7808 14.6389 12.7808 15.7978C12.7808 16.9208 13.6037 17.7168 14.9237 17.7168C15.5287 17.7168 15.8797 17.5688 16.3036 17.2628C16.4246 17.1778 16.5096 17.0798 16.6176 17.0798C16.7516 17.0798 16.8726 17.2868 17.1016 17.5068C17.3076 17.7038 17.5496 17.7658 17.8886 17.7658C19.0625 17.7658 19.9215 16.9578 19.9215 16.3718C19.9215 16.1648 19.8005 16.0058 19.5595 15.9448ZM15.9516 16.2638C15.5007 16.3138 14.9377 16.1228 14.9377 15.6468C14.9377 15.1469 15.3127 14.7309 16.0837 14.7619C16.3616 14.7739 16.3706 14.7869 16.3976 15.0779C16.5006 16.1458 16.3726 16.2168 15.9516 16.2638Z" fill="white"/>
<path d="M24.1044 13.6259C23.4514 13.2959 22.6874 13.1899 22.6464 12.8759C22.5844 12.397 23.1194 12.272 23.3134 12.272C23.7014 12.272 23.9774 12.748 24.3044 13.0409C24.5223 13.2349 24.7273 13.3329 24.9693 13.3329C25.3933 13.3329 25.6723 13.0529 25.6723 12.6249C25.6723 11.844 24.9574 11.014 24.4974 11.014C24.3044 11.014 24.0734 11.21 23.8314 11.21C23.5774 11.21 23.2144 11.05 22.7674 11.05C21.3745 11.05 20.2855 12.052 20.2855 13.1989C20.2855 14.0779 20.9605 14.4759 22.0015 15.0019C22.5344 15.2709 23.2094 15.6418 23.2094 16.0438C23.2094 16.1778 23.0634 16.5228 22.5634 16.4818C22.2984 16.4608 21.8834 16.1548 21.5075 15.7518C21.2415 15.4719 21.0475 15.2159 20.6605 15.2159C20.3085 15.2159 20.1395 15.4719 20.1395 15.9598C20.1395 16.8388 20.8775 17.6948 21.3135 17.6948C21.5065 17.6948 21.7015 17.5468 21.8824 17.5468C22.0634 17.5468 22.4994 17.7688 23.2134 17.7688C24.7874 17.7688 25.7913 16.8518 25.7913 15.6298C25.7923 14.6629 25.2553 14.2119 24.1044 13.6259Z" fill="white"/>
<path d="M32.62 11.111C31.6021 11.111 31.0821 11.391 31.0821 11.842C31.0821 12.208 31.5661 12.343 31.5661 12.648C31.5661 12.698 31.5181 12.9899 31.3371 13.3809C31.1801 13.7349 31.0461 13.9169 30.8281 13.9169C30.5741 13.9169 30.4411 13.7349 30.2961 13.3689C30.1381 12.977 30.0541 12.7219 30.0541 12.587C30.0541 12.367 30.4531 12.343 30.4531 11.892C30.4531 11.245 29.8231 11.098 28.4922 11.098C26.8822 11.098 26.0583 11.464 26.0583 12.112C26.0583 12.5499 26.3363 12.624 26.6152 12.77C26.9542 12.942 27.0273 13.2339 27.1962 13.6139L28.1292 15.6518C28.6742 16.8488 29.0362 17.6438 29.0362 18.1207C29.0362 18.3897 28.9162 18.5347 28.7342 18.5347C28.4672 18.5347 28.5402 18.1437 28.3352 17.6928C28.1532 17.2878 27.8022 17.0688 27.3662 17.0688C26.7722 17.0688 26.2403 17.5928 26.2403 18.2908C26.2403 19.2797 27.0142 20.0007 28.2502 20.0007C29.4362 20.0007 30.2831 19.3647 30.9851 18.0958C31.6871 16.7998 32.0021 15.2139 32.5711 13.6619C32.825 12.9899 32.91 12.7469 33.406 12.5509C33.769 12.4169 34 12.32 34 11.856C34 11.355 33.564 11.111 32.62 11.111Z" fill="white"/>
</svg>
