<svg width="40" height="40" viewBox="0 0 40 40" fill="none" xmlns="http://www.w3.org/2000/svg">
<rect width="40" height="40" fill="#BA0C2F"/>
<path d="M33.0287 23.6641C33.0287 23.6641 30.9503 23.6641 29.91 23.6641C27.7038 21.1457 23.702 18.3591 18.925 15.7611V15.7622C18.6882 15.6333 18.4452 15.5076 18.2053 15.3798C18.4452 15.5066 18.6872 15.6333 18.925 15.7611C20.6472 14.6601 22.2333 13.9394 23.439 13.9394C23.4841 13.9394 23.5291 13.9415 23.5731 13.9436C26.7609 14.0913 26.7787 20.5099 26.7787 20.5099C26.7787 20.5099 30.0493 13.4041 27.1286 9.82968H27.1297C26.6656 9.26398 26.0276 9 25.2545 9C23.0682 8.99895 19.8008 11.1088 16.3291 14.4192C14.3187 13.4229 12.2246 12.4905 10.1189 11.6703C10.1189 11.6703 12.498 13.1736 15.4271 15.3033C13.8693 16.8653 12.2854 18.6535 10.7569 20.5821C10.1776 18.1496 13.2617 14.6036 13.2617 14.6036C13.2617 14.6036 5.58497 18.3214 6.01762 22.3547C6.12238 23.3132 6.73417 24.0821 7.74195 24.6772C7.19092 25.4849 6.6577 26.303 6.14333 27.1296C6.14333 27.1296 6.95521 26.2485 8.2427 24.9464C10.0351 25.7991 13.1098 26.809 16.395 26.809C19.3252 26.809 22.3569 25.8819 25.837 25.2513C25.837 25.2513 25.837 25.2512 25.837 25.2533L25.838 25.2513C26.0454 25.6797 26.1858 26.0904 26.2413 26.4748C26.7169 29.6773 20.5163 30.9355 20.5163 30.9355C20.5163 30.9355 28.6026 31.5965 31.2017 28.6873C32.1885 27.5811 31.9874 25.7625 30.9482 24.7149C33.0287 23.6642 30.9513 24.7117 33.0287 23.6641ZM25.044 23.9491C24.6574 23.9533 24.2656 23.9554 23.8706 23.9554C18.9354 23.9554 13.4649 23.5259 11.4923 21.7848C13.3246 20.0751 15.4166 18.2512 17.4259 16.792C20.3445 19.0275 23.3992 21.657 25.044 23.9491C25.2252 24.1995 25.3875 24.4478 25.5321 24.6877C25.3865 24.4457 25.2262 24.1995 25.044 23.9491Z" fill="white"/>
</svg>
