<svg width="40" height="40" viewBox="0 0 40 40" fill="none" xmlns="http://www.w3.org/2000/svg">
<g clip-path="url(#clip0)">
<rect width="40" height="40" fill="#435F98"/>
<path d="M11.4111 12.5448L16.7514 18.9258L13.8639 20.7885L11.8088 19.8866L9 21.5082L13.0454 23.9047L13.0981 28.6064L15.9069 26.9847L15.8373 24.6745L19.2103 23.1847L22.0662 31L24.7419 29.4552L24.7252 20.0006L28.5738 17.7787C29.7414 17.1045 30.1479 15.5875 29.4738 14.4198C28.7996 13.2521 27.2826 12.8456 26.1149 13.5198L22.2664 15.7417L14.0868 11L11.4111 12.5448ZM13.9221 12.9879L14.0857 12.8935L22.2653 17.6352L26.9345 14.9394C27.3341 14.7087 27.8234 14.8398 28.0541 15.2394C28.2848 15.639 28.1537 16.1283 27.7541 16.359L23.0849 19.0548L23.1016 28.5094L22.938 28.6039L20.082 20.7885L14.6835 23.9054L14.6702 22.9666L13.8639 22.4857L19.2624 19.3689L13.9221 12.9879Z" fill="#D5DDE1"/>
<path d="M13.0862 21.9433L14.6473 24.6473L19.5146 21.8372L22.4921 29.4922L23.5737 28.8677L23.6126 20.1923L27.9391 17.6944L28.937 15.6761L27.4595 14.3659L22.28 16.6352L13.8944 12.1026L12.8127 12.7271L17.9535 19.1331L13.0862 21.9433Z" fill="#D5DDE1"/>
<path fill-rule="evenodd" clip-rule="evenodd" d="M2 0H37V35H2V0Z" fill="#435F98"/>
<path fill-rule="evenodd" clip-rule="evenodd" d="M15.6115 4.6533C15.7729 8.05859 15.6762 11.09 15.3853 13.7717C15.6115 14.0713 15.6115 14.8196 15.4497 16.0422C15.5144 16.1044 15.5467 16.3539 15.5467 16.828L15.6113 17.514V18.3122C15.6113 19.0109 15.5467 19.7467 15.4497 20.5078C15.2881 21.3811 14.9651 22.0048 14.3833 22.3665C14.2219 22.491 13.9957 22.5662 13.7371 22.6281C13.5755 22.6534 13.4141 22.6534 13.2848 22.6281C13.2525 22.6158 13.1232 22.5533 12.9616 22.4908C12.8 22.4037 12.703 22.3412 12.5416 22.3164C12.1538 22.2167 11.7338 22.2539 11.1843 22.4413C10.8613 22.5533 10.5381 22.7781 10.2795 23.1147C10.0211 23.4641 9.7949 23.8757 9.73026 24.3124C9.69794 24.8363 9.73026 25.3352 10.0211 25.8591C10.2795 26.4329 10.829 26.982 11.5722 27.4561C11.8307 27.855 11.7984 28.0424 11.3459 28.0547C10.8615 28.0796 10.506 27.9799 10.1181 27.7054C10.0536 27.9923 9.85972 28.1172 9.40723 28.0547C9.14867 28.0424 8.82564 27.9298 8.34083 27.7678C7.75924 27.5434 7.14533 27.2064 6.6607 26.8071C5.98215 26.2961 5.49752 25.647 5.17432 24.9236C4.72201 24.0257 4.52791 22.9902 4.56059 21.8177C4.62505 21.1319 4.85129 20.408 5.20682 19.6846C5.85305 18.3749 6.98409 17.1274 8.56726 15.9425C10.6676 14.3833 12.1539 12.7741 13.188 11.1773C14.4807 9.18146 15.0621 6.97367 14.9005 4.56632C14.9005 4.34171 15.0298 4.25437 15.2883 4.27925C15.4499 4.29141 15.5469 4.41616 15.6115 4.6533Z" fill="white"/>
<path fill-rule="evenodd" clip-rule="evenodd" d="M15.1914 4.52856C15.8699 8.64491 13.9311 12.3623 9.31047 15.6928C7.63016 16.878 6.40234 18.1628 5.65896 19.5348C5.01273 20.7824 4.72203 22.005 4.88345 23.2397C5.04505 24.3749 5.59432 25.3601 6.40216 26.1712C7.27463 26.982 8.34085 27.5182 9.6335 27.7426C6.01431 26.0214 5.85289 23.5015 9.14869 20.1959C9.37493 19.9715 9.79492 19.6597 10.3765 19.2232C11.152 18.6618 11.669 18.2625 12.0568 18.0008C12.7029 17.4519 13.2523 16.9155 13.6723 16.3792C14.2539 15.7057 14.6417 15.007 14.9001 14.2585C15.0294 14.009 15.1264 13.4227 15.191 12.5121C15.2233 11.6389 15.288 10.6535 15.3526 9.58075C15.3849 8.40813 15.3849 7.39784 15.3849 6.52464C15.353 5.53886 15.2883 4.87792 15.1914 4.52856Z" fill="#435F98"/>
<path fill-rule="evenodd" clip-rule="evenodd" d="M15.1267 15.88C15.1913 15.5183 15.2237 14.9568 15.2883 14.2084C15.1267 15.6054 13.4464 17.4515 10.1829 19.8093C9.69828 20.1211 9.24597 20.4955 8.89063 20.9445C8.27653 21.5931 7.85655 22.2419 7.59798 22.8779C7.27496 23.7135 7.27496 24.4994 7.59798 25.2352C7.95351 26.1087 8.72902 26.8946 9.95685 27.6056C6.95175 25.3601 6.98407 23.0528 10.1829 20.6947L12.9294 18.5991C13.608 18.0376 14.1574 17.5639 14.4158 17.1895C14.739 16.7904 14.9653 16.3539 15.1267 15.88Z" fill="#C1A760"/>
<path fill-rule="evenodd" clip-rule="evenodd" d="M15.2883 25.1856L15.5469 24.3622L15.6115 25.3977L15.2883 25.1856ZM13.6728 25.0856C13.5759 25.148 13.4143 25.1108 13.1236 24.9859C12.768 24.7738 12.542 24.8738 12.542 25.2728C12.542 25.6721 12.6389 25.9589 12.865 26.1836C13.0266 26.3332 13.1236 26.4329 13.2852 26.4581C13.4466 26.483 13.4466 26.5827 13.3496 26.7323C13.1882 26.9567 13.0266 27.1192 12.865 27.2313L12.6389 27.3562L12.445 27.5183C12.2834 27.7055 12.2834 27.9176 12.542 28.1673C13.4466 28.4289 14.093 28.2918 14.5776 27.6807C14.8685 27.3938 15.0299 27.0192 15.0622 26.5578C15.1269 26.483 15.1915 26.4329 15.2239 26.4205L15.4501 26.4581C15.5147 26.483 15.5471 26.6077 15.6117 26.8323V27.6182C15.5471 28.0171 15.6763 28.2045 15.8378 28.1793C16.0317 28.2417 16.4195 28.2417 17.0011 28.1793C17.3241 28.2917 17.6474 28.2917 18.035 28.2045C18.132 28.267 18.2613 28.3042 18.4229 28.3294L18.8429 28.2918C19.1014 28.267 19.2307 28.105 19.2307 27.7929L19.2628 26.8325V26.6704L19.3921 26.558C19.4244 26.5456 19.5537 26.5456 19.6507 26.558C19.5861 27.0818 19.8125 27.5436 20.2323 27.9176C20.5232 28.142 20.7816 28.2294 21.0078 28.1173L21.2017 27.9548C21.2662 27.8924 21.2662 27.8552 21.2662 27.8303C21.2662 27.7678 21.3306 27.7678 21.363 27.805C21.5247 28.1172 21.8154 28.2292 22.074 28.1172C22.2354 28.0547 22.397 27.93 22.4938 27.7927C22.5583 27.7428 22.5583 27.7428 22.6233 27.7678C22.8815 28.304 23.3663 28.4536 24.0774 28.1793C24.1097 28.2417 24.1741 28.2668 24.2388 28.2668C24.8204 28.3292 25.1434 28.2415 25.2084 28.0171C25.2084 28.1172 25.2404 28.1793 25.3698 28.2043L25.6928 28.2668C25.8546 28.2917 25.8868 28.3292 25.8546 28.3917C25.7902 28.4538 25.6928 28.4914 25.5316 28.4789C25.3054 28.4536 25.2086 28.5537 25.1436 28.7405L25.0791 29.2395C25.0791 29.4516 25.2086 29.6012 25.4021 29.6637C26.9857 29.9133 27.7285 29.4267 27.5673 28.2415L28.4397 28.2668C28.6337 28.2043 28.8595 28.0796 29.086 27.8675C29.2477 27.6807 29.2799 27.456 29.2477 27.1441L29.1183 26.8323L29.0215 26.6702C28.957 26.6202 28.9247 26.5453 28.9247 26.4329C29.3445 25.9838 29.3445 25.5845 28.957 25.2352C28.7953 25.1106 28.5369 25.1106 28.1492 25.2352C27.8262 25.2352 27.5676 25.2728 27.4058 25.3724C27.3414 25.2728 27.3091 25.1856 27.1473 25.1731L26.6628 25.1478C26.4366 25.1478 26.2103 25.2479 26.0489 25.4347C25.8871 25.1106 25.5318 25.0233 24.9179 25.2103C24.7561 25.0607 24.5622 25.0607 24.2391 25.2103C23.787 25.0235 23.3667 25.0854 22.9465 25.4347C22.8174 25.2726 22.656 25.1731 22.4944 25.1478H21.9128C21.751 25.1478 21.6542 25.1854 21.5898 25.2728L21.5253 25.3599L21.493 25.4347C21.3635 25.4972 21.2667 25.4972 21.1049 25.4347C20.9435 25.0854 20.5234 24.9982 19.7155 25.2103C19.5864 25.1106 19.3925 25.1106 19.0046 25.2103L18.1968 25.1731C18.4231 24.961 18.4231 24.6741 18.1968 24.2999C17.9707 23.9006 17.6152 23.7757 17.0013 23.9255V23.6137C17.2922 23.6762 17.5506 23.6513 17.7122 23.5638C19.1662 23.6887 19.9741 23.489 20.2325 22.9275C20.3942 23.2396 20.6201 23.4392 20.9435 23.5265L21.2665 23.5638C21.3633 23.5638 21.428 23.5514 21.4928 23.5265C21.5251 23.4641 21.6542 23.4641 21.6863 23.5514C22.1712 23.6763 22.5588 23.6262 22.8174 23.4394C22.8819 23.5514 22.9465 23.589 23.1083 23.5639L23.4636 23.5267H23.6899C23.7547 23.5267 23.7547 23.4891 23.787 23.4018C23.8515 23.3021 23.9161 23.2769 24.0129 23.3393C24.3359 23.6515 24.7239 23.6515 25.2088 23.3393C25.2407 23.489 25.4023 23.5514 25.6286 23.5514C25.37 23.5638 25.2088 23.6887 25.1438 23.938V24.5617C25.1438 24.799 25.2405 24.8985 25.4023 24.9234C26.2102 25.1231 26.8241 25.0235 27.1794 24.5868C27.4057 24.3371 27.5028 24.0253 27.5028 23.676C27.5028 23.5264 27.5673 23.4639 27.6319 23.4639L27.7287 23.5011L27.9549 23.5264L28.1167 23.5512L28.2781 23.5636C28.3108 23.5888 28.3749 23.5512 28.4399 23.439C28.5367 23.2765 28.6985 23.2765 28.8597 23.439C29.4413 23.6259 29.7322 23.6135 29.7647 23.3766C30.7016 23.7508 31.3479 23.7132 31.7032 23.2765C32.1557 23.6758 32.6401 23.6883 33.125 23.339C33.3835 23.5262 33.6421 23.5886 34.0296 23.5262C34.6112 23.364 34.5788 22.8028 33.9328 21.8172C34.2558 21.4429 34.4176 21.1314 34.353 20.8817C34.2881 20.6945 34.1267 20.5572 33.9328 20.4951C33.7065 20.4327 33.3835 20.4699 32.9959 20.632V18.8858C32.9635 18.6864 32.8019 18.6238 32.511 18.7237L32.0266 19.073C31.8648 19.1979 31.8327 19.3722 31.7677 19.572V20.8441C31.0247 20.2206 30.3782 20.1955 29.7647 20.782C29.5061 20.3827 29.086 20.3702 28.5365 20.682V18.973C28.4721 18.6988 28.3747 18.6363 28.1488 18.7485C27.8903 18.9357 27.6317 19.073 27.4705 19.185C27.3087 19.2851 27.2442 19.4471 27.3087 19.7216V20.445C27.1469 20.345 26.8562 20.345 26.5976 20.445C25.8869 20.2829 25.4021 20.4327 25.1436 20.8815C25.0791 20.7818 24.9177 20.6818 24.7238 20.557C24.3357 20.3702 24.0127 20.3702 23.6897 20.557C23.302 20.4074 22.979 20.445 22.7204 20.6318C22.3324 20.3825 22.0094 20.345 21.7508 20.5322C21.2664 20.345 20.8462 20.4325 20.5553 20.7442C20.5553 20.5073 20.2967 20.1329 19.7475 19.659C19.8769 19.0975 19.7475 18.6234 19.4891 18.2245C19.3921 18.0624 19.2307 17.9376 19.0693 17.8252C18.9077 17.7504 18.7782 17.6883 18.6814 17.6631C18.5198 17.6382 18.2614 17.5634 17.9381 17.4134C17.7042 17.335 17.4856 17.2168 17.2918 17.0642C17.0009 16.9146 16.9042 16.952 16.9686 17.2264L16.8395 21.8669C16.8395 21.8045 16.8072 21.742 16.6456 21.6797C16.484 21.6174 16.3224 21.7422 16.0963 22.0291C15.1917 22.1787 14.5453 22.6777 14.093 23.526C13.996 23.8005 13.8992 24.0874 13.8346 24.4239L13.77 24.8733C13.7696 24.9859 13.7373 25.0609 13.6728 25.0856ZM18.9396 21.4435C18.9075 21.8677 18.7459 22.0298 18.4227 21.9425V20.9322C18.778 20.8697 18.9396 21.0317 18.9396 21.4435ZM26.016 26.6702C26.016 26.5578 26.016 26.3081 26.0487 25.9339C26.2102 26.246 26.2746 26.4828 26.2102 26.6201C26.2102 26.7321 26.1778 26.7697 26.1134 26.7697C26.0485 26.7946 26.016 26.745 26.016 26.6702Z" fill="white"/>
<path fill-rule="evenodd" clip-rule="evenodd" d="M17.1626 17.3269V23.3769C17.4533 23.1896 17.7765 23.1521 18.0997 23.2147L19.1659 23.1771C19.6505 23.0275 19.9737 22.753 20.1353 22.3411C20.5551 21.306 20.2968 20.4952 19.392 19.9338C19.8768 18.7238 19.4243 18.0127 17.9702 17.8255C17.6472 17.8133 17.3886 17.6389 17.1626 17.3269ZM18.8427 20.6948C19.1013 20.9069 19.2305 21.1565 19.2627 21.4307C19.2627 21.6927 19.1657 21.93 18.9395 22.1294C18.6811 22.3791 18.4225 22.4287 18.0995 22.279V20.3456C18.2611 20.4702 18.455 20.5951 18.8427 20.6948ZM18.0997 19.8216L18.035 18.8489C18.1966 18.7864 18.3581 18.8489 18.455 18.9985L18.5843 19.2229V19.5098C18.5197 19.7468 18.3579 19.8465 18.0997 19.8216ZM21.7506 22.4285C21.6539 22.6157 21.5248 22.6533 21.363 22.5661C21.2016 22.4661 21.1691 22.2789 21.1691 21.992C21.1691 21.8427 21.1691 21.7174 21.2017 21.6553C21.2662 21.5057 21.3632 21.4305 21.5248 21.4057C21.6539 21.4057 21.6862 21.4681 21.7506 21.5929V22.4285ZM20.4584 21.9424C20.2966 22.7155 20.5228 23.1521 21.1046 23.2398C21.2664 23.2521 21.4926 23.2398 21.6862 23.1773C21.8157 23.1521 21.9124 23.1773 21.9771 23.2398H22.4619L22.4942 20.7825L21.848 20.8074C20.9432 20.5575 20.4584 20.9319 20.4584 21.9424ZM24.1743 25.485C23.2697 25.2104 22.7849 25.5846 22.7849 26.6078C22.6235 27.3937 22.8172 27.8302 23.4311 27.9175C23.5929 27.9299 23.7868 27.8923 24.0127 27.8304C24.1099 27.8051 24.239 27.8553 24.2713 27.9175H24.7561L24.8852 25.4603L24.1743 25.485ZM24.0776 27.0814C23.9481 27.2686 23.8513 27.3307 23.6895 27.231C23.5281 27.119 23.4633 26.9318 23.4633 26.6447C23.4633 26.4951 23.4633 26.3954 23.5281 26.3329C23.5926 26.1833 23.6895 26.0836 23.8511 26.0584C23.9479 26.0584 24.0125 26.1208 24.0774 26.2705V27.0814H24.0776ZM23.6251 21.5678V23.1771H22.8817V20.7823H23.5927C23.5927 20.8444 23.6895 20.8444 23.8513 20.7823L24.4329 20.7571C24.7238 20.8442 24.8206 21.0067 24.885 21.256C24.9177 21.6553 24.9177 22.2789 24.885 23.1771H24.1743V21.5678C24.1099 21.4305 24.0125 21.3684 23.9158 21.3684L23.7543 21.4305L23.6251 21.5678ZM25.1436 22.3164C25.0791 22.8654 25.3054 23.1771 25.7902 23.2519C26.0488 23.2768 26.2746 23.2519 26.3718 23.1895C26.5332 23.6761 26.4362 23.9005 26.1779 23.9005C25.7902 23.9005 25.5316 23.8756 25.4668 23.8134V24.4992C25.5316 24.5867 25.693 24.6241 25.9516 24.6241L26.5978 24.5869C26.8564 24.4994 27.018 24.3123 27.1471 24.0254L27.1794 23.3769V20.8072H26.6627L26.3396 20.7823L25.8871 20.7198C25.7257 20.7571 25.5641 20.9067 25.4023 21.1317C25.2084 21.4434 25.0791 21.8427 25.1436 22.3164ZM25.887 21.6555C25.9514 21.5059 26.0487 21.4307 26.21 21.4058C26.3718 21.4058 26.4362 21.4683 26.5009 21.593V22.4287C26.3395 22.6159 26.21 22.6535 26.0487 22.5663C25.887 22.4662 25.8548 22.279 25.8548 21.9921C25.8546 21.8427 25.8546 21.7174 25.887 21.6555ZM27.6317 23.1896H28.278V22.1545C28.6981 22.3413 28.9246 22.6783 28.9246 23.1773H29.5708C29.6676 22.6907 29.5063 22.2542 29.0215 21.8427C29.4413 21.381 29.6031 21.0565 29.5708 20.8195H28.8597C28.8597 21.1939 28.763 21.381 28.4721 21.4058C28.3106 21.381 28.2781 21.3062 28.2781 21.1565V18.9734L27.6319 19.4724V23.1896H27.6317ZM32.8018 21.1565L32.7373 18.9734L32.0911 19.4724V23.1898H32.8018V22.1547C33.2219 22.3415 33.448 22.6785 33.3834 23.1775H34.0296C34.1914 22.6909 34.0296 22.2543 33.5448 21.8429C33.965 21.3811 34.1267 21.0567 34.0296 20.8197H33.3834C33.3189 21.1941 33.2219 21.3811 32.9636 21.406C32.8339 21.381 32.8018 21.3062 32.8018 21.1565ZM30.7015 21.4305C30.8954 21.4432 31.0245 21.5678 31.0245 21.8175V22.3789C30.96 22.5661 30.8627 22.6781 30.7015 22.6781C30.5397 22.6781 30.4106 22.5661 30.3781 22.3789V21.8175C30.3781 21.5678 30.4752 21.4434 30.7015 21.4305ZM29.6674 22.3666C29.7319 23.0277 30.0551 23.3146 30.6366 23.2398H30.7015C31.3477 23.3146 31.6707 23.0277 31.703 22.3666V21.7427C31.6707 21.0067 31.2832 20.6823 30.7015 20.7571C30.0872 20.6823 29.7319 21.0067 29.6674 21.7427V22.3666ZM15.773 25.9215L14.9005 25.36C15.0621 24.2501 15.353 23.5889 15.773 23.4017V25.9215ZM13.931 25.36C13.5757 25.5472 13.188 25.4973 12.7679 25.2351C12.7032 25.7468 13.0262 26.1087 13.7694 26.3079C13.7371 27.0814 13.285 27.5803 12.6063 27.8048C13.4141 28.0544 13.9957 27.9172 14.3834 27.3683C14.5773 27.1066 14.7066 26.7696 14.7389 26.3331C14.8035 26.2334 14.868 26.1459 14.9003 26.1087C15.3528 25.9338 15.6114 26.0462 15.7728 26.4328V27.83H16.6453V21.9422C16.4837 22.2168 16.0313 22.4285 15.4498 22.5908C14.5775 22.9403 14.0928 23.8635 13.931 25.36ZM17.8088 25.4225V27.9174H17.0656L17.001 25.747C16.9686 25.5598 17.0656 25.4601 17.2272 25.4225C17.3886 25.3976 17.6149 25.3976 17.8088 25.4225ZM19.715 25.7094C19.7473 25.8715 19.7473 26.0587 19.715 26.2959C19.3273 26.1835 19.1013 26.2459 18.9395 26.458V27.8672H18.1318V25.9213C18.1963 25.8341 18.1318 25.7468 18.0995 25.6843V25.4846H18.7457C18.7779 25.4347 18.8427 25.4597 18.9073 25.5594C19.0689 25.5471 19.2305 25.4969 19.2627 25.4597H19.5536C19.6505 25.5225 19.715 25.6097 19.715 25.7094ZM19.8768 25.6469C19.7473 26.7945 20.0707 27.5431 20.846 27.8549L21.3308 27.119L21.2664 27.0814H21.3308V27.119L21.7506 27.8549C22.494 27.5431 22.817 26.7945 22.7203 25.6469C22.6558 25.5845 22.6558 25.5224 22.7203 25.4601L22.4617 25.4225H22.1708L21.8478 25.4601L21.9123 25.6722C21.9123 26.0215 21.8478 26.1835 21.7505 26.1835C21.686 25.9338 21.5246 25.7717 21.3307 25.6722C21.0398 25.7718 20.8782 25.9338 20.8459 26.1835C20.7168 26.1835 20.6844 26.0213 20.6844 25.6722L20.7168 25.4601L20.3937 25.4225H20.1352L19.8766 25.4601C19.9091 25.5225 19.9091 25.5845 19.8768 25.6469ZM27.1792 25.4225V28.5536C27.1469 28.7032 27.0178 28.8654 26.8562 29.0526L26.6948 29.2271C26.6625 29.2647 26.533 29.3019 26.4362 29.3271L25.3698 29.3643V28.7032H26.0161C26.1132 28.7404 26.21 28.7032 26.3395 28.5536C26.4362 28.4535 26.5009 28.3539 26.4362 28.2415C26.3718 28.1418 26.3395 28.1046 26.1777 28.0793L25.9514 28.0421L25.6929 27.9796C25.4666 27.9172 25.3052 27.7676 25.2084 27.5555C24.9822 27.2437 24.9175 26.5824 24.9822 25.5596C25.0466 25.4599 25.0789 25.4223 25.1436 25.4223H25.7255V26.7696C25.7255 27.0814 25.887 27.2686 26.21 27.3559C26.3718 27.3307 26.4362 27.2063 26.4362 26.9566V25.5472C26.5007 25.4601 26.533 25.4223 26.6625 25.4223H27.1792V25.4225ZM27.4055 27.7924C27.5673 27.9297 27.7285 28.0169 27.8903 28.0169L28.3747 27.9544C28.5365 27.8919 28.6981 27.7676 28.8596 27.5555C29.0213 27.2437 28.9244 26.9192 28.5365 26.5575C28.2135 26.3703 28.1489 26.2458 28.3107 26.1833C28.4721 26.1457 28.6012 26.1457 28.6337 26.1833C28.7951 26.1709 28.8596 26.1085 28.8596 25.9836C28.8596 25.8586 28.7951 25.6467 28.7628 25.3597C28.6983 25.4345 28.601 25.4846 28.4398 25.4846H27.8905C27.6319 25.4969 27.4707 25.6095 27.4057 25.7964L27.3412 26.3578C27.4057 26.5199 27.503 26.6447 27.6642 26.7447L27.9873 27.0814C28.0517 27.231 28.0517 27.3062 27.9549 27.3062C27.7932 27.3062 27.5673 27.2437 27.4057 27.1437V27.7924H27.4055ZM17.9704 24.6742C17.9704 24.8115 17.9379 24.9235 17.8088 25.0236C17.7118 25.1233 17.6149 25.1732 17.4533 25.1732C17.324 25.1732 17.227 25.1233 17.1302 25.0236C17.001 24.9235 16.9686 24.8115 16.9686 24.6742C16.9686 24.5242 17.001 24.4245 17.1302 24.3125C17.2272 24.2128 17.324 24.1752 17.4533 24.1752C17.6149 24.1752 17.7118 24.2128 17.8088 24.3125C17.9379 24.4245 17.9704 24.5241 17.9704 24.6742Z" fill="#435F98"/>
<path fill-rule="evenodd" clip-rule="evenodd" d="M14.2221 17.9381C13.6082 18.5743 12.8003 19.198 11.8957 19.7595C11.3463 20.0961 10.8293 20.4702 10.3447 20.9067C9.79543 21.3185 9.37526 21.6925 9.08456 22.0047C8.17976 23.0525 7.9537 24.2126 8.56761 25.5223C8.66457 25.7965 8.82617 26.0585 8.9876 26.2959L9.05224 26.3331C9.63401 27.0441 10.377 27.4932 11.3463 27.7053C11.0877 27.5431 10.8293 27.3308 10.5386 27.0814C10.2154 26.7696 9.95703 26.4578 9.79543 26.121C9.21366 25.2351 9.1492 24.3372 9.63401 23.4391C10.054 22.5532 10.7002 22.0542 11.5081 21.9299L12.445 21.9422C12.7034 22.0047 12.865 22.0671 12.9621 22.1543C13.1237 22.2788 13.4144 22.3164 13.7376 22.3039C15.1917 22.179 15.7087 20.1584 15.224 16.2665L15.1271 16.6409C14.9005 17.0649 14.5774 17.5016 14.2221 17.9381Z" fill="#C63635"/>
</g>
<defs>
<clipPath id="clip0">
<rect width="40" height="40" fill="white"/>
</clipPath>
</defs>
</svg>
