<svg width="40" height="40" viewBox="0 0 40 40" fill="none" xmlns="http://www.w3.org/2000/svg">
<rect width="40" height="40" fill="#DDECE7"/>
<path d="M20.7218 12V29H25.5789L20.7218 12Z" fill="#BA131A"/>
<path d="M5 16.8571V12H13.5639L8.19549 29V16.8571H5Z" fill="#BFD730"/>
<path d="M14.3947 25.9323L13.4361 29V16.7932H17.079L15.8213 21.0752H18.3571L17.015 16.5376L17.079 12H20.7218V29L19.7632 25.9323H14.3947Z" fill="#BFD730"/>
<path d="M13.4826 12H17.1429V16.8571H13.4361V29H8.1955L13.4826 12Z" fill="#72BF44"/>
<path fill-rule="evenodd" clip-rule="evenodd" d="M29.0489 12H20.7218L25.5789 29V23.8872H29.2945C32.8064 23.8872 35.4211 21.5941 35.4211 18.1799C35.4211 14.7597 32.5608 12 29.0489 12ZM29.3496 16.8571H25.5789V19.2857H29.3496C30.0203 19.2857 30.5639 18.7421 30.5639 18.0714C30.5639 17.4008 30.0203 16.8571 29.3496 16.8571Z" fill="#ED1D24"/>
</svg>
