<svg width="40" height="40" viewBox="0 0 40 40" fill="none" xmlns="http://www.w3.org/2000/svg">
<rect width="40" height="40" fill="#FF6600"/>
<path d="M29.5881 26.8524C29.3221 26.8524 29.0921 27.0924 28.7891 27.0924C28.3532 27.0924 28.1472 26.8524 28.1472 26.3714V24.1665C28.1472 23.8655 28.2452 23.8785 28.5461 23.8655L29.4901 23.8305C29.9021 23.8185 29.9871 23.7946 29.9871 23.3516V22.8226C29.9871 22.4996 29.9261 22.4876 29.5751 22.4876H28.2311V21.9366C28.2311 21.2156 28.2072 20.9996 27.6632 20.9996C27.0822 20.9996 26.3072 21.5396 25.0233 22.4266C24.4663 22.8106 24.2973 22.8466 24.2973 23.3026C24.2973 23.8415 24.3813 23.8066 25.2653 23.8295V26.7564C25.2653 28.2064 26.0392 28.9754 27.4812 28.9754C28.9331 28.9754 29.9991 28.1584 29.9991 27.5364C30.0001 27.1044 29.8071 26.8524 29.5881 26.8524Z" fill="white"/>
<path d="M20.6915 25.8935H23.4264C23.8994 25.8935 24.1044 25.6535 24.1044 24.9695C24.1044 23.5065 22.8815 22.3326 21.0665 22.3326C19.9406 22.3326 18.8876 22.8585 18.2336 23.7705C17.8226 24.3455 17.6046 25.0165 17.6046 25.7014C17.6046 27.5484 19.0076 29.0003 21.0055 29.0003C21.8045 29.0003 22.5185 28.7823 23.1354 28.3744C23.6444 28.0394 23.8994 27.6554 23.8994 27.3554C23.8994 26.9834 23.6694 26.7324 23.3904 26.7324C23.0764 26.7324 22.6035 27.2584 21.8285 27.2584C20.9695 27.2584 20.3155 26.5994 20.3155 26.0604C20.3165 25.9174 20.4255 25.8935 20.6915 25.8935ZM20.2795 24.3585C20.2795 23.8785 20.6555 23.5055 21.0665 23.5055C21.4655 23.5055 21.9745 23.8225 21.9585 24.2895C21.9375 24.8935 20.7275 24.6925 20.7275 24.6925C20.3895 24.6935 20.2795 24.6705 20.2795 24.3585Z" fill="white"/>
<path d="M14.5907 20.0007C12.9077 20.0007 12.1208 20.2417 12.1208 21.0006C12.1208 21.4096 12.3388 21.4946 12.6417 21.6266C13.0537 21.7956 13.1017 21.9156 13.1017 22.6026V25.9875C13.1017 26.8804 12.7757 27.3484 12.2668 27.3484C12.0738 27.3484 11.9398 27.2164 11.9398 27.0484C11.9398 26.8194 12.0248 26.5894 12.0248 26.3725C12.0248 25.6015 11.4438 25.0235 10.6088 25.0235C9.79786 25.0235 9.20489 25.6265 9.20489 26.5285C9.20489 27.9744 10.5008 29.0003 12.5828 29.0003C14.3497 29.0003 15.4757 28.3004 15.9106 26.9504C16.1776 26.1315 16.0676 24.6625 16.1406 22.6016C16.1646 21.9876 16.1646 21.7946 16.5646 21.5656C16.8546 21.3976 17.0366 21.3126 17.0366 20.8796C17.0356 20.1817 16.2856 20.0007 14.5907 20.0007Z" fill="white"/>
<path d="M11.7868 15.4939C11.4728 15.4939 10.9928 15.9229 10.2248 16.0309C8.81287 16.2298 8.41687 15.3589 8.41687 14.8089C8.41687 14.6629 8.82087 14.6389 9.08686 14.6389H11.8228C12.2947 14.6389 12.5007 14.3939 12.5007 13.6979C12.5007 12.209 11.2778 11.012 9.46286 11.012C8.3359 11.012 7.28293 11.55 6.62995 12.478C6.21797 13.064 5.99997 13.7479 5.99997 14.4439C5.99997 16.3228 7.40392 17.8018 9.40085 17.8018C10.1998 17.8018 10.9148 17.5798 11.5318 17.1648C12.0408 16.8228 12.2948 16.4328 12.2948 16.1269C12.2958 15.7499 12.0648 15.4939 11.7868 15.4939ZM9.46386 12.209C9.86185 12.209 10.3138 12.525 10.3138 13.001C10.3138 13.6259 9.39886 13.446 9.39886 13.446C8.83488 13.459 8.56387 13.3399 8.56387 13.021C8.56287 12.533 9.05188 12.209 9.46386 12.209Z" fill="white"/>
<path d="M19.5595 15.9448C19.2075 15.8468 19.1955 15.6758 19.1955 14.7859V14.6019C19.1955 14.1999 19.2325 13.7229 19.2325 13.1859C19.2325 11.757 18.2145 11 16.2916 11C14.4387 11 13.2657 11.757 13.2657 12.5869C13.2657 13.0509 13.5917 13.3809 14.0157 13.3809C14.4147 13.3809 14.7306 13.1729 15.0806 12.7459C15.3586 12.403 15.5406 12.099 15.9036 12.099C16.2916 12.099 16.4356 12.453 16.4356 13.2339C16.4356 13.4179 16.4236 13.6139 16.4116 13.8449C16.0126 13.7719 15.6976 13.7359 15.4436 13.7359C13.9297 13.7359 12.7807 14.6389 12.7807 15.7978C12.7807 16.9208 13.6037 17.7168 14.9237 17.7168C15.5286 17.7168 15.8796 17.5688 16.3036 17.2628C16.4246 17.1778 16.5096 17.0798 16.6176 17.0798C16.7516 17.0798 16.8726 17.2868 17.1016 17.5068C17.3076 17.7038 17.5496 17.7658 17.8885 17.7658C19.0625 17.7658 19.9215 16.9578 19.9215 16.3718C19.9215 16.1648 19.8005 16.0058 19.5595 15.9448ZM15.9516 16.2638C15.5006 16.3138 14.9377 16.1228 14.9377 15.6468C14.9377 15.1469 15.3126 14.7309 16.0836 14.7619C16.3616 14.7739 16.3706 14.7869 16.3976 15.0779C16.5006 16.1458 16.3726 16.2168 15.9516 16.2638Z" fill="white"/>
<path d="M24.1043 13.6259C23.4513 13.296 22.6874 13.19 22.6464 12.876C22.5844 12.397 23.1193 12.272 23.3133 12.272C23.7013 12.272 23.9773 12.748 24.3043 13.041C24.5223 13.235 24.7273 13.333 24.9693 13.333C25.3933 13.333 25.6723 13.053 25.6723 12.625C25.6723 11.844 24.9573 11.014 24.4973 11.014C24.3043 11.014 24.0733 11.21 23.8313 11.21C23.5773 11.21 23.2143 11.05 22.7674 11.05C21.3744 11.05 20.2855 12.052 20.2855 13.199C20.2855 14.0779 20.9604 14.4759 22.0014 15.0019C22.5344 15.2709 23.2094 15.6419 23.2094 16.0439C23.2094 16.1779 23.0633 16.5228 22.5634 16.4818C22.2984 16.4608 21.8834 16.1549 21.5074 15.7519C21.2414 15.4719 21.0474 15.2159 20.6604 15.2159C20.3085 15.2159 20.1395 15.4719 20.1395 15.9599C20.1395 16.8388 20.8774 17.6948 21.3134 17.6948C21.5064 17.6948 21.7014 17.5468 21.8824 17.5468C22.0634 17.5468 22.4994 17.7688 23.2134 17.7688C24.7873 17.7688 25.7912 16.8518 25.7912 15.6299C25.7922 14.6629 25.2553 14.2119 24.1043 13.6259Z" fill="white"/>
<path d="M32.62 11.111C31.602 11.111 31.0821 11.391 31.0821 11.842C31.0821 12.208 31.566 12.343 31.566 12.648C31.566 12.698 31.518 12.99 31.3371 13.381C31.1801 13.7349 31.0461 13.9169 30.8281 13.9169C30.5741 13.9169 30.4411 13.735 30.2961 13.369C30.1381 12.977 30.0541 12.722 30.0541 12.587C30.0541 12.367 30.4531 12.343 30.4531 11.892C30.4531 11.245 29.8231 11.098 28.4922 11.098C26.8822 11.098 26.0583 11.464 26.0583 12.112C26.0583 12.55 26.3362 12.624 26.6152 12.77C26.9542 12.942 27.0272 13.234 27.1962 13.614L28.1292 15.6519C28.6741 16.8488 29.0361 17.6438 29.0361 18.1208C29.0361 18.3898 28.9161 18.5348 28.7341 18.5348C28.4672 18.5348 28.5401 18.1438 28.3351 17.6928C28.1532 17.2878 27.8022 17.0688 27.3662 17.0688C26.7722 17.0688 26.2402 17.5928 26.2402 18.2908C26.2402 19.2798 27.0142 20.0007 28.2502 20.0007C29.4361 20.0007 30.2831 19.3647 30.985 18.0958C31.687 16.7998 32.002 15.2139 32.571 13.662C32.825 12.99 32.91 12.747 33.406 12.551C33.769 12.417 34 12.32 34 11.856C34 11.355 33.564 11.111 32.62 11.111Z" fill="white"/>
</svg>
