<svg width="40" height="40" viewBox="0 0 40 40" fill="none" xmlns="http://www.w3.org/2000/svg">
<g clip-path="url(#clip0)">
<rect width="40" height="40" fill="#F2F4F7"/>
<path d="M11.4111 12.5448L16.7514 18.9258L13.8639 20.7885L11.8088 19.8866L9 21.5082L13.0454 23.9047L13.0981 28.6064L15.9069 26.9847L15.8373 24.6745L19.2103 23.1847L22.0662 31L24.7419 29.4552L24.7252 20.0006L28.5738 17.7787C29.7414 17.1045 30.1479 15.5875 29.4738 14.4198C28.7996 13.2521 27.2826 12.8456 26.1149 13.5198L22.2664 15.7417L14.0868 11L11.4111 12.5448ZM13.9221 12.9879L14.0857 12.8935L22.2653 17.6352L26.9345 14.9394C27.3341 14.7087 27.8234 14.8398 28.0541 15.2394C28.2848 15.639 28.1537 16.1283 27.7541 16.359L23.0849 19.0548L23.1016 28.5094L22.938 28.6039L20.082 20.7885L14.6835 23.9054L14.6702 22.9666L13.8639 22.4857L19.2624 19.3689L13.9221 12.9879Z" fill="#D5DDE1"/>
<path d="M13.0862 21.9433L14.6473 24.6473L19.5146 21.8372L22.4921 29.4922L23.5737 28.8677L23.6126 20.1923L27.9391 17.6944L28.937 15.6761L27.4595 14.3659L22.28 16.6352L13.8944 12.1026L12.8127 12.7271L17.9535 19.1331L13.0862 21.9433Z" fill="#D5DDE1"/>
<g clip-path="url(#clip1)">
<path fill-rule="evenodd" clip-rule="evenodd" d="M40.9796 -1.1297V41.5296H32.2277C34.0758 36.6292 34.4927 30.5663 33.1868 25.2532C31.6062 18.5015 27.2277 12.0848 21.0239 8.12358C15.1626 4.35671 7.7188 2.87237 0.398977 4.39756L-1.28565 4.81065V-1.1297H40.9796ZM10.3495 5.56204C8.10342 4.30796 5.14424 4.12711 2.49464 4.58368L3.43222 4.68909L3.56499 4.62716C4.7942 4.53493 6.08442 4.57709 7.22979 4.82909C6.85496 4.93451 6.2123 5.14961 5.75918 5.34068C6.01363 5.43357 6.33725 5.6019 6.56333 5.74487C7.05071 5.56929 8.06982 5.29489 8.57025 5.19046C9.01131 5.3275 10.1554 5.85753 10.8639 6.38295C10.0255 6.47189 8.87852 6.63758 7.95727 6.85302C8.17486 7.04836 8.36244 7.27467 8.52131 7.52602C9.41745 7.35769 10.7243 7.20517 11.8547 7.16399C12.4292 7.66536 12.895 8.26424 13.214 8.8898C11.9728 8.80184 10.3182 8.82523 9.30752 8.93493C9.40898 9.12039 9.5548 9.58651 9.61678 9.8675C10.8711 9.81249 12.9224 9.90473 13.7791 10.0299C14.0632 10.7161 14.2247 11.4533 14.2903 12.2271C12.8532 11.9392 11.1637 11.6997 9.8448 11.6361C9.85916 12.0663 9.84252 12.4758 9.80305 12.8774C11.3732 13.0411 12.896 13.328 14.3715 13.7141C14.3536 14.4691 14.2436 15.4102 14.043 16.1366C12.8722 15.715 11.0071 15.1576 9.42333 14.8338C9.26184 15.4893 9.05633 16.1307 8.77577 16.7543C10.3227 17.2754 11.8498 17.9546 13.3132 18.6843C13.0744 19.3889 12.7263 20.1729 12.3991 20.7537C10.9344 19.9255 9.42691 19.1119 7.93345 18.4672C7.48065 19.3006 6.90847 20.1917 6.36368 20.92C7.81864 21.8154 9.19627 22.7852 10.5651 23.8228C10.1541 24.4286 9.56883 25.1547 9.21063 25.5888C7.90378 24.4886 5.21439 22.329 5.21439 22.329C4.41775 23.2918 3.74115 24.0133 2.74519 24.7877C3.85174 25.9314 5.29561 27.5574 6.19664 28.689C5.73438 29.1811 5.278 29.5698 4.73093 29.951C3.63285 28.5901 2.31654 26.8746 1.54437 25.801C0.469131 26.6525 -0.188863 27.1134 -1.28465 27.6902V29.2826L0.46096 32.8123C0.0629667 33.0659 -0.257046 33.2273 -0.76465 33.4444L-1.28596 32.414V34.2722C5.45318 31.2489 12.3098 24.5897 14.3046 17.3518C15.0344 14.8535 15.1636 11.6325 13.9702 9.30354C13.2695 7.77077 11.8501 6.34078 10.3495 5.56204ZM9.34601 4.51055C9.63831 4.60707 9.91952 4.74114 10.1988 4.86203L10.3576 4.83667C11.7947 5.07484 13.1723 5.55941 14.4051 6.24097C13.736 6.24459 13.0418 6.23537 12.373 6.28873C12.6539 6.54568 12.9478 6.83886 13.1928 7.10799C14.0935 7.09053 14.9704 7.11029 15.8343 7.16761C16.6896 7.80207 17.5616 8.65459 18.049 9.52787C17.0504 9.30058 15.6744 9.09766 14.4449 8.99389C14.6047 9.36185 14.7649 9.74199 14.901 10.1343C16.2643 10.3359 17.6164 10.5869 18.9331 10.9239C19.364 11.8311 19.6978 12.7884 19.8361 13.7951C18.386 13.2746 16.8974 12.7782 15.3753 12.4669C15.4135 12.9581 15.4161 13.4743 15.4196 13.9786C16.9917 14.4372 18.5279 14.9695 20.0168 15.6501C20.0217 16.6699 19.9176 17.6417 19.6906 18.5647C18.19 17.8107 16.6645 17.0688 15.0791 16.5243C14.8771 17.4226 14.6142 18.2962 14.3023 19.1461C15.8271 19.9367 17.3414 20.7405 18.7824 21.6899C18.5126 22.4716 18.1097 23.3208 17.6497 24.0811C16.2326 23.1064 14.8158 22.1553 13.3393 21.3256C12.8363 22.38 12.2054 23.4585 11.4443 24.4454C12.7645 25.495 14.1086 26.583 15.3808 27.7436C14.9613 28.3783 14.4035 29.1116 13.7726 29.78C12.8444 28.7934 11.3008 27.3963 10.0177 26.2987C9.10624 27.4085 8.02644 28.6369 6.945 29.5484C7.77035 30.4266 10.2258 33.4115 10.2258 33.4115C9.73325 33.9063 9.12548 34.4152 8.49228 34.8714C8.49228 34.8714 5.98949 31.626 5.36836 30.847C3.88828 32.0342 2.6992 32.864 0.964991 33.7926C1.65756 34.9775 3.36144 38.1814 3.36144 38.1814C2.9243 38.4515 2.4617 38.7071 2.00172 38.8761C1.20019 37.5249 0.231315 35.5682 -0.284772 34.4508C-0.782916 34.7285 -1.28596 34.9044 -1.28596 34.9044V40.741C3.93982 39.0306 8.75424 36 12.8327 31.6162C16.5481 27.5531 19.4834 23.162 20.3567 17.9224C21.0532 13.7404 19.6818 9.80228 16.3928 7.1406C14.4018 5.41776 11.9277 4.81658 9.34601 4.51055ZM7.60789 7.29674C5.31747 4.95987 1.80534 4.76552 -1.28433 5.5011C-1.28303 5.49814 -1.28433 5.78341 -1.28433 5.78341C-0.641343 5.64604 0.200966 5.51197 0.96531 5.51362C0.46586 5.82063 -0.0146753 6.18991 -0.453121 6.55292C-0.266847 6.5941 -0.0668654 6.65603 0.107338 6.73443C0.807415 6.23141 1.48368 5.79296 2.04414 5.4843C2.7739 5.48858 3.71896 5.62727 4.33911 5.87696C3.32097 6.24558 2.08818 6.81777 1.29122 7.35538C1.43802 7.43642 1.59362 7.56522 1.70682 7.68512C2.68158 7.15905 4.08924 6.54996 5.24081 6.17904C5.7843 6.39744 6.36955 6.7901 6.70524 7.11754C5.23462 7.46969 3.82368 7.86004 2.40297 8.44311C2.54423 8.60551 2.68875 8.85257 2.76052 9.00641C3.7878 8.63549 5.79734 8.04386 7.37789 7.74047C7.66464 8.05209 8.00751 8.5505 8.1866 9.01431C6.44718 9.19582 4.45461 9.50284 3.11774 9.88957C3.19767 10.1169 3.24791 10.3382 3.29097 10.5517C4.93971 10.2325 6.75678 9.99334 8.53437 9.92185C8.69422 10.4377 8.78295 10.9895 8.78523 11.5551C7.01351 11.4411 4.98504 11.5146 3.36958 11.6819C3.37089 11.896 3.34218 12.3184 3.31347 12.5796C4.94785 12.5308 6.77569 12.5486 8.73107 12.772C8.66289 13.3059 8.53306 13.9977 8.3631 14.593C6.53755 14.1733 4.87478 13.97 3.03977 13.8468C2.96931 14.2059 2.81762 14.6444 2.6444 15.0166C4.3636 15.3361 6.08148 15.8164 7.73968 16.4153C7.51165 16.9575 7.24611 17.4872 6.9561 18.0047C5.71579 17.4131 3.51279 16.5826 2.06632 16.1755C1.83078 16.661 1.42953 17.3258 1.02795 17.815C2.06828 18.3272 4.0615 19.4621 5.42316 20.3482C5.09726 20.7922 4.73419 21.2478 4.34696 21.656C3.02934 20.6163 1.7127 19.6376 0.277638 18.7166C-0.181033 19.2466 -0.751938 19.8214 -1.28499 20.2793V20.4447L2.01021 23.9915C1.64712 24.3269 1.27067 24.6355 0.882459 24.9205L-1.28499 22.1217V27.063C2.06403 25.0796 5.45546 21.8226 7.35963 18.3717C8.9154 15.6105 10.0895 11.8684 8.58787 8.69313C8.31874 8.20263 8.03557 7.72498 7.60789 7.29674ZM17.4543 7.331L18.4278 7.4486C19.4051 7.95953 20.2964 8.68029 21.1051 9.53611C21.3977 9.86585 21.7168 10.1966 21.9259 10.5517C21.1208 10.3224 20.3407 10.0437 19.5115 9.86421C19.7924 10.3056 19.9933 10.7401 20.2008 11.2491C21.1266 11.5146 22.042 11.842 22.9437 12.1685C23.5218 13.2723 23.9416 14.4619 24.1432 15.714C23.1048 15.1915 22.0684 14.6806 20.9955 14.256C21.0767 14.8707 21.1041 15.5028 21.078 16.1112C22.2511 16.6558 23.5678 17.3851 24.3814 17.9125C24.4088 18.7792 24.3262 20.3205 24.0744 21.3058C23.1378 20.616 21.7853 19.7299 20.6924 19.161C20.5417 20.0115 20.145 21.3397 19.7219 22.2759C20.8712 23.055 22.0051 23.8588 23.0934 24.7992C22.7577 25.7236 22.3363 26.6114 21.8782 27.4724C20.79 26.532 19.6909 25.6317 18.5426 24.763C17.8918 26.0609 17.1699 27.2336 16.1879 28.4521C17.2896 29.4773 18.341 30.481 19.3931 31.5812C18.8783 32.3363 18.3025 33.0844 17.6275 33.789C16.6241 32.7006 15.5955 31.5885 14.5441 30.5485C13.4545 31.8201 12.2243 33.1496 10.936 34.2426C11.5298 34.8649 12.8092 36.3798 13.7412 37.7311C13.1022 38.2812 12.5048 38.8076 11.8632 39.2777L9.15484 35.7526C7.48229 37.063 5.71023 38.1534 3.92709 39.1357L5.35108 41.5293H9.75706C16.4877 36.8845 22.5734 29.9915 24.444 22.2996C25.5766 17.587 24.504 12.7703 21.2852 9.26467C19.5722 7.39886 17.6716 6.771 16.3285 6.35363C16.6717 6.58191 17.0684 6.93307 17.4543 7.331ZM-1.28302 6.939V7.76188L-0.825658 7.44037C-0.449195 7.53326 -0.014668 7.72268 0.272083 7.91407C-0.249876 8.22339 -0.792393 8.53469 -1.27977 8.86805V9.38425C-0.632217 8.98368 0.131153 8.51558 0.735973 8.2056C0.979336 8.36405 1.20052 8.59662 1.37114 8.82918C0.496858 9.18034 -0.717998 9.78054 -1.28465 10.0846C-1.28465 10.0846 -1.28595 10.6136 -1.28465 10.6136C-0.316743 10.1399 0.753583 9.65997 1.7701 9.34406C1.90515 9.57729 2.03304 9.87244 2.08426 10.1409C0.999561 10.3527 -0.252484 10.8139 -1.28009 11.2158V11.7014C-0.197678 11.3219 1.26478 10.9341 2.21702 10.7783C2.29108 11.0909 2.29695 11.4876 2.29924 11.7742C0.862219 11.9122 -0.107973 12.0818 -1.2739 12.3213V12.8744C-0.234547 12.7337 1.49281 12.6049 2.24313 12.6349C2.17266 13.0161 2.08882 13.41 1.9443 13.7549C1.08176 13.6752 -0.307287 13.6103 -1.28107 13.6367C-1.28498 13.6377 -1.28498 14.3762 -1.28628 14.3798C-0.335013 14.4315 0.701716 14.6651 1.53554 14.8262C1.4243 15.12 1.21421 15.5308 1.03022 15.8243C0.377771 15.6043 -0.573169 15.2996 -1.28662 15.1849V16.6452C-0.828929 16.8504 -0.170611 17.1818 0.0515473 17.3288C-0.0926439 17.5511 -0.395051 17.921 -0.601877 18.1062C-0.901677 17.9023 -1.28662 17.6737 -1.28662 17.6737V19.5358C-0.52293 18.7818 0.226092 17.9915 0.81721 17.1525C2.29174 15.0064 3.45766 12.2228 2.39678 9.53677C1.75771 8.06593 0.20326 7.13994 -1.28302 6.939ZM23.4001 11.0485C23.7067 11.5752 24.0023 12.1144 24.2483 12.6662L25.4204 13.2127C26.2555 14.5851 26.9197 16.0312 27.2805 17.6032C26.6343 17.1881 25.9733 16.7615 25.3153 16.3962C25.4158 17.1087 25.4422 17.7534 25.4576 18.5031C26.203 19.0272 26.9771 19.5823 27.6964 20.2306C27.7646 21.5449 27.6726 22.8478 27.4727 24.0663C26.6845 23.2918 25.8614 22.609 25.0573 22.0397C24.8567 23.1643 24.4538 24.4382 23.987 25.572C24.8113 26.2378 25.7156 27.1042 26.5067 27.9804C26.1635 28.9887 25.7505 29.9246 25.2569 30.8371C24.4603 29.9707 23.5857 29.0612 22.7111 28.2963C22.178 29.3481 21.0947 31.0443 20.1401 32.3524C21.0085 33.257 21.8163 34.1981 22.6132 35.1416C22.0443 35.9427 21.4029 36.7073 20.7374 37.4481C19.9287 36.5047 19.1699 35.5418 18.3263 34.6227C17.0508 36.1235 15.9804 37.2936 14.4534 38.5915C15.3577 39.6918 16.7184 41.5306 16.7184 41.5306H17.4912C18.9213 40.2445 20.2951 38.804 21.5412 37.3467C24.6244 33.5442 27.0616 29.4766 27.9134 24.7525C28.8369 19.7957 27.5467 14.9721 24.3034 11.3887L23.4001 11.0485ZM26.4813 13.527L26.4682 13.5639C27.8778 15.3137 28.9948 17.1878 29.5778 19.2746L29.5657 19.2987L28.4774 18.4685C28.6161 19.3161 28.726 20.1018 28.7547 20.9863C29.2659 21.3806 29.829 21.8898 30.2674 22.4228C30.3402 23.863 30.3402 25.3951 30.0942 26.8116C29.6094 26.1528 29.1733 25.6847 28.4122 24.9126C28.2416 25.9598 27.8566 27.6052 27.3869 28.7078C28.0514 29.4391 28.7358 30.3631 29.1635 31.0387C28.9149 31.9021 28.4298 33.0653 27.9137 34.0423C27.2985 33.2435 26.8672 32.5945 26.0643 31.6442C25.2677 33.1232 24.338 34.6264 23.311 36.0089C24.0098 36.841 24.6466 37.7097 25.2596 38.5902C24.6802 39.4062 24.0636 40.2093 23.3864 40.9739C22.7483 40.091 22.0746 39.2102 21.4127 38.3418C20.4879 39.4253 19.5552 40.5324 18.4284 41.5293H23.6193C26.9582 37.6155 29.3824 33.285 30.3669 28.3892C31.3883 23.4552 30.5819 18.236 27.4351 14.5162C27.1406 14.1868 26.8349 13.7707 26.4813 13.527ZM30.9098 20.3857C31.1094 21.3305 31.1965 22.1096 31.3146 23.3449C31.7021 23.7721 32.1651 24.4886 32.1651 24.4886C32.214 25.9314 32.1269 27.3838 31.8297 28.8725L31.0461 27.8954C30.8083 29.2612 30.4749 30.535 29.9745 31.9344L30.8491 33.4662C30.5923 34.3786 30.0942 35.6426 29.6127 36.6509C29.2887 36.1179 28.9785 35.5316 28.6461 35.0612C27.8625 36.6028 26.9246 38.1037 25.9091 39.5488L27.1252 41.5299C27.1278 41.5299 27.4025 41.5299 27.4058 41.5299C30.3398 37.1266 32.3099 32.2747 32.5131 26.7566C32.611 24.4451 31.8943 22.433 31.0318 20.5083L30.9098 20.3857ZM33.2393 28.3006C33.145 29.0388 33.0886 29.7892 32.9575 30.4892L32.7245 30.1707C32.4769 31.6834 32.1116 33.0896 31.5955 34.4943L31.956 35.5026C31.6597 36.5185 31.2856 37.6092 30.8034 38.748C30.6896 38.4031 30.4772 37.988 30.2811 37.6698C29.63 38.975 28.8594 40.3671 28.0889 41.5302H30.0312C31.0921 39.4599 31.9214 37.2669 32.5304 35.0035C33.0429 32.8851 33.5065 30.622 33.2507 28.3009H33.2393V28.3006ZM33.3649 33.7073C32.9539 35.862 32.2189 38.5326 31.5978 40.4392C31.5237 40.292 31.4555 40.1444 31.3873 39.9856C31.0983 40.5766 30.6576 41.5299 30.6576 41.5299H31.6552C32.5154 39.4809 33.1186 36.5277 33.3649 33.7073ZM2.41701 39.8575C1.20313 40.4171 -0.0094564 40.8829 -1.28565 41.2954L-1.28433 41.5243H3.34284L2.41701 39.8575ZM12.5492 40.1711C12.0687 40.5186 11.457 41.0687 10.7188 41.5319H13.4356C13.4352 41.5319 12.8454 40.6441 12.5492 40.1711Z" fill="#0060A9"/>
</g>
</g>
<defs>
<clipPath id="clip0">
<rect width="40" height="40" fill="white"/>
</clipPath>
<clipPath id="clip1">
<rect width="215" height="44" fill="white" transform="translate(-169 -2)"/>
</clipPath>
</defs>
</svg>
