<svg width="40" height="40" viewBox="0 0 40 40" fill="none" xmlns="http://www.w3.org/2000/svg">
<rect width="40" height="40" fill="white"/>
<rect width="40" height="40" fill="#C4C4C4"/>
<rect width="40" height="40" fill="#D71A21"/>
<g clip-path="url(#clip0)">
<path d="M40.7999 -1.70734H1V39.1682H40.7999V-1.70734Z" fill="#D71A21"/>
<path d="M22.6545 8.42827C22.4039 8.74347 22.2647 9.13072 22.2647 9.52697C22.2647 9.66206 22.2647 12.8591 22.2647 12.9762C22.2461 13.2374 22.144 13.4805 21.977 13.6876C21.8842 13.7777 21.3366 14.255 21.2902 14.309L21.5964 14.318C21.6985 14.228 22.7566 13.3184 22.8587 13.1923C23.165 12.8681 23.3413 12.4448 23.3413 12.0036C23.3413 11.8595 23.3413 8.82452 23.3413 8.68944C23.332 8.35622 23.462 8.02301 23.7033 7.77985C23.8332 7.64477 24.2416 7.31155 24.3158 7.2305L23.991 7.2215C23.926 7.30255 22.7659 8.3202 22.6545 8.42827Z" fill="white"/>
<path d="M20.0465 20.9733L21.3366 22.063H22.1997C23.0258 22.063 23.8239 21.7478 24.4087 21.1805C24.9377 20.6671 25.1326 19.9737 25.1326 19.3253V17.5331C25.1233 17.1279 24.947 16.7406 24.6314 16.4704C24.5757 16.4164 24.1952 16.0652 24.1952 16.0652V17.4431C24.1952 17.4431 24.6128 17.8573 24.6871 17.9384C25.0676 18.3346 25.0676 19.0551 23.8518 20.1988C23.6383 20.397 23.035 20.9553 22.1997 20.9553L20.0465 20.9733Z" fill="white"/>
<path d="M23.6383 13.6156C23.4991 13.7597 23.3599 14.12 23.3599 14.4442V15.1196H24.0653C24.3437 15.1196 24.7057 14.8764 24.7799 14.7504C24.7799 14.7414 24.7799 14.0749 24.7799 14.0749C24.882 14.219 25.012 14.3541 25.1605 14.4622C25.2347 14.3721 25.8844 13.6156 26.4227 13.6066C27.323 13.5976 27.1188 14.7053 26.7568 15.0566C26.6362 15.1736 26.1071 15.6419 25.9401 15.795C25.5131 16.1913 24.7799 16.0022 24.7799 14.9845C24.7799 14.9845 24.0003 15.705 23.8797 15.804C23.759 15.9031 23.3599 16.3174 23.3599 16.3174V18.1095C23.3599 18.9651 23.0722 19.2532 22.8309 19.5144C22.7381 19.6135 21.745 20.496 21.6058 20.5951L21.2809 20.6041C21.2809 20.6041 21.8656 20.0908 21.977 19.9737C22.107 19.8386 22.2647 19.5684 22.2647 19.1182C22.2647 19.0011 22.2462 16.3084 22.2462 16.3084H17.717C16.1392 16.3084 15.805 14.6153 15.7958 14.156C15.7958 14.0209 15.7958 12.67 15.7958 12.4539C15.7958 12.1747 15.6101 11.7064 15.3224 11.5623H15.7679C15.8236 11.5803 16.102 11.6884 16.102 12.7331C16.102 12.7331 16.0835 13.9398 16.0835 14.0119C16.0835 14.5432 16.5197 15.1466 17.1415 15.1466L22.2647 15.1376C22.2647 15.0025 22.404 14.4982 22.6545 14.228C22.7938 14.0749 23.8982 13.1023 24.0189 13.0032H24.3437C24.2973 13.0483 23.759 13.5076 23.6476 13.6336L23.6383 13.6156ZM25.3182 14.6333C25.4482 14.8044 25.5967 14.9755 25.7545 15.1286C26.3113 15.5609 26.5712 15.0926 26.2 14.6063C26.0515 14.4081 25.4853 14.4622 25.3182 14.6333Z" fill="white"/>
<path d="M19.8238 17.8393C19.8238 18.0825 19.0349 18.7219 18.9885 18.7579C18.9328 18.4967 18.7286 18.2176 18.1439 17.6412L19.007 16.8036C19.5918 17.371 19.8238 17.4971 19.8238 17.8393Z" fill="white"/>
<path d="M21.3274 8.21216C21.5037 8.38327 21.875 8.83356 21.6522 9.05871C21.4573 9.24783 21.151 9.55402 21.151 9.55402C21.1325 9.44595 20.8448 9.17578 20.8448 9.17578C20.8448 9.17578 20.8448 9.9863 20.8448 10.0854C20.8355 10.4546 20.6963 10.5537 20.6963 10.5537C20.6963 10.5537 21.3923 11.2201 21.3923 12.0846C21.3923 12.4989 21.3923 12.8862 21.3923 12.9672C21.4016 13.1293 21.3367 13.3004 21.216 13.4175C21.151 13.4895 20.5106 14.1199 20.4085 14.201C20.26 14.3271 20.0744 14.3991 19.8795 14.3901H17.4757C17.0952 14.3901 16.7054 14.1019 16.7054 13.8138C16.7054 13.7417 16.7146 12.9492 16.7146 12.9492C16.8353 13.0843 16.9652 13.2464 17.2622 13.2464C17.5035 13.2464 17.7448 13.0663 17.8098 12.9942C17.8748 12.9222 19.6289 11.1571 19.6289 11.1571C19.6289 11.1571 18.8122 10.4186 18.2739 10.0674C18.014 9.89624 17.6613 10.1124 17.6056 10.3375C17.4386 11.04 17.6056 12.1027 17.6056 12.1027L16.9467 11.4632C16.6775 11.2021 16.6868 10.6167 17.0116 10.3105C17.058 10.2565 17.5499 9.73414 18.1625 9.73414H19.1185C19.7589 9.73414 20.4642 10.3555 20.4642 10.3555C20.5199 10.2925 20.557 10.2205 20.5663 10.1394C20.5663 9.81519 20.557 8.95964 20.557 8.95964C20.0744 8.49134 20.0094 8.00503 20.2415 7.77989C20.6777 7.35662 20.8355 7.21252 20.8355 7.21252C20.8355 7.21252 20.8169 7.72585 21.3274 8.21216ZM18.311 12.8952C18.0697 13.1383 18.0326 13.1924 17.8098 13.3274H20.5199C21.2531 13.3274 21.1046 12.8862 20.9747 12.661C20.7055 12.2017 19.8517 11.3552 19.8517 11.3552C19.8517 11.3552 18.3574 12.8501 18.311 12.8952Z" fill="white"/>
<path d="M15.2203 15.2907H14.7748C14.7748 15.2907 15.2482 15.5429 15.2482 16.2003V18.2986C15.2482 19.6585 16.4083 20.9193 17.8191 20.9193H18.9978C19.7031 20.9193 19.9537 20.7572 20.3807 20.388C20.5384 20.2529 20.7426 20.0277 20.8169 19.9467C21.0582 19.6765 21.3273 19.4604 21.3273 18.7579V18.0735C21.3273 17.4791 20.9747 17.236 20.7983 17.0648C20.6869 16.9568 20.3899 16.6776 20.3899 16.6776V18.0825C20.3899 18.0825 20.6869 18.3887 20.8169 18.4878C21.4294 18.9561 20.9468 19.7666 20.3714 19.7666C20.26 19.7666 17.949 19.7666 17.7819 19.7666C16.8353 19.7846 15.5452 18.9651 15.5452 17.5782V16.4434C15.5545 15.2907 15.2203 15.2907 15.2203 15.2907Z" fill="white"/>
<path d="M18.0604 17.8483C18.0604 18.0915 17.2715 18.7309 17.2251 18.7669C17.1694 18.5058 16.9652 18.2266 16.3805 17.6502L17.2436 16.8127C17.8191 17.371 18.0604 17.4971 18.0604 17.8483Z" fill="white"/>
<path d="M9.01125 27.1693H7.61907C7.18286 27.1693 7.21998 26.8181 7.17357 26.5209V24.5937C7.17357 24.5937 7.47985 24.5847 7.82326 24.5847C8.20378 24.5847 8.68641 24.5306 9.15046 24.7828C8.90915 24.2875 8.38941 23.9813 7.82326 23.9993H7.18286V23.3779C7.18286 23.3779 7.18286 22.8375 7.04364 22.6844H7.96247C8.75137 22.6844 9.36393 22.6754 10.0043 23.0807C10.0043 23.0807 9.88368 22.063 8.35228 22.063H5.36375C5.36375 22.063 5.88349 22.4953 5.86493 23.3689L5.88349 26.8811C5.88349 27.7637 6.24546 27.7907 6.24546 27.7907H9.18759C9.85583 27.7907 10.0879 27.3314 10.0879 27.0793L10.0971 26.7461C10.0971 26.7461 9.88368 27.1693 9.01125 27.1693Z" fill="white"/>
<path d="M16.8445 26.8721V24.4136C16.8445 23.4589 16.0464 23.2068 15.4431 23.2068C14.6542 23.2068 14.4129 23.8462 14.3108 24.0713C14.1344 23.477 13.5126 23.2068 13.0114 23.2068C12.0554 23.2068 11.8141 24.0894 11.8141 24.0894C11.8141 24.0894 11.7956 23.2338 11.0252 23.2338H10.2735C10.2735 23.2338 10.7097 23.4049 10.7097 24.1434V26.8721C10.7097 27.7727 11.0809 27.7907 11.0809 27.7907H12.3246C12.0276 27.5746 11.8513 27.2324 11.8513 26.8631V24.4406C11.8698 24.3325 12.0554 23.9723 12.5845 23.9723C12.8908 23.9723 13.2249 24.2785 13.2156 24.6207V26.8721C13.2156 27.7817 13.5868 27.7907 13.5868 27.7907H14.8305C14.5335 27.5656 14.3572 27.2324 14.3572 26.8631V24.4406C14.4778 24.0894 14.8676 23.8912 15.2389 24.0083C15.5173 24.0984 15.7122 24.3415 15.7215 24.6297C15.7215 24.6297 15.7215 26.683 15.7215 26.8721C15.7308 27.7907 16.0928 27.7817 16.0928 27.7817C16.7424 27.7817 17.3364 27.7817 17.3364 27.7817C17.0302 27.5656 16.8538 27.2324 16.8445 26.8721Z" fill="white"/>
<path d="M19.0163 26.8721C19.0163 27.2324 19.1926 27.5746 19.4896 27.7907C19.4896 27.7907 18.8957 27.7907 18.246 27.7907C18.246 27.7907 17.8654 27.7997 17.8654 26.8811V24.1344C17.8654 23.4139 17.4385 23.2248 17.4385 23.2248H18.1903C18.4594 23.2248 19.007 23.2248 19.007 24.2424V26.8541L19.0163 26.8721Z" fill="white"/>
<path d="M22.8401 23.576C22.8401 23.576 22.7195 23.2518 22.209 23.2518C21.4294 23.2518 21.2438 24.1524 21.2438 24.1524C21.1788 23.4409 20.9839 23.2338 20.4363 23.2338H19.6845C19.6845 23.2338 20.1207 23.4049 20.1207 24.1433V26.8721C20.1207 27.7727 20.492 27.7907 20.492 27.7907H21.7357C21.4387 27.5745 21.2623 27.2323 21.2623 26.8721V24.6297C21.2902 24.4405 21.4015 24.2694 21.5686 24.1704C21.9863 23.9002 22.5338 23.9812 22.8587 24.3505L22.8401 23.576Z" fill="white"/>
<path d="M28.6223 23.7381C28.8822 23.7381 29.1328 23.8011 29.3555 23.9182V23.2338H28.316V22.1891C28.0933 22.5313 27.8056 22.8375 27.4807 23.0987C27.1281 23.3778 26.3856 23.7291 26.3856 23.7291L27.1745 23.7381V26.9081C27.1745 27.7907 27.555 27.7907 27.555 27.7907C28.2325 27.7907 28.7894 27.7907 28.7894 27.7907C28.4924 27.5835 28.316 27.2503 28.3068 26.8991V23.7381C28.6409 23.7381 28.4181 23.7381 28.6223 23.7381Z" fill="white"/>
<path d="M32.3905 25.116C31.6944 25.8184 31.1468 25.7104 30.7106 26.2327C30.7106 26.2327 30.7849 26.9351 31.3324 27.1783C31.5181 27.2594 32.2884 27.5295 32.7803 26.701V27.4395C32.7803 27.4395 32.4647 27.7997 31.4531 27.7997C30.2373 27.7997 29.402 26.8721 29.402 25.6113C29.402 24.3685 30.0795 23.2248 31.3696 23.2158C32.6225 23.1977 33.3093 24.1884 32.3905 25.116ZM31.6294 24.8278C31.8336 24.4586 32.0007 23.522 31.2953 23.576C30.4786 23.639 30.6364 25.7374 30.6364 25.7374C30.9055 25.4492 31.3139 25.3862 31.6294 24.8278Z" fill="white"/>
<path d="M18.4409 22.8645C18.7565 22.8555 18.9978 22.6033 18.9978 22.3062C18.9885 22 18.7286 21.7658 18.4224 21.7658C18.1161 21.7748 17.8655 22.018 17.8655 22.3152C17.8655 22.6214 18.1254 22.8645 18.4409 22.8645Z" fill="white"/>
<path d="M24.1303 27.2684C23.8519 27.2684 23.6477 26.9802 23.6477 26.692C23.6477 25.5573 24.6036 25.3952 24.8635 25.098V27.0162C24.7428 27.1063 24.6315 27.2684 24.1303 27.2684ZM24.8635 24.6567C24.5758 25.143 22.3297 25.2511 22.6731 26.9352C22.8124 27.6016 23.2671 27.7997 23.8426 27.7997C24.3994 27.7997 24.7428 27.5205 24.8821 27.2504C24.9656 27.7547 25.2347 27.7907 25.2347 27.7907C25.8844 27.7907 26.4784 27.7907 26.4784 27.7907C26.1814 27.5746 25.9958 27.2414 25.9958 26.8811V24.3145C25.9958 23.7021 25.2997 23.2248 24.5572 23.2248C24.1396 23.2158 23.7405 23.3329 23.3971 23.558V24.3505C23.3971 24.3505 23.6569 23.7201 24.2973 23.7201C24.9285 23.7201 24.9749 24.0263 24.9749 24.1794C24.9842 24.3415 24.9563 24.5126 24.8635 24.6567Z" fill="white"/>
<path d="M35.1378 26.5479C35.147 26.8721 34.85 27.2954 34.2189 27.2954C33.5692 27.2954 33.3094 26.656 33.3094 26.656V27.4665C33.662 27.6827 34.0704 27.7907 34.4881 27.7907C35.3327 27.7907 36.1958 27.1693 36.1772 26.2958C36.168 26.0076 36.0659 25.7284 35.8895 25.5033C35.6018 25.134 35.0821 24.8729 34.6737 24.6297C34.4417 24.4946 34.321 24.2424 34.321 24.1614C34.3117 24.0083 34.3953 23.7021 35.0171 23.7021C35.6297 23.7021 35.8988 24.3325 35.8988 24.3325V23.567C35.5554 23.3329 35.1378 23.2068 34.7108 23.2068C33.9683 23.2068 33.2908 23.6841 33.3094 24.2965C33.3186 24.8368 33.5507 25.1791 34.0055 25.5123C34.2096 25.6564 34.4231 25.7824 34.6459 25.8995C34.9985 26.0886 35.1285 26.3228 35.1378 26.5479Z" fill="white"/>
</g>
<defs>
<clipPath id="clip0">
<rect width="37" height="38" fill="white" transform="translate(1 2)"/>
</clipPath>
</defs>
</svg>
