<svg width="40" height="40" viewBox="0 0 40 40" fill="none" xmlns="http://www.w3.org/2000/svg">
<g clip-path="url(#clip0)">
<rect width="40" height="40" fill="#F2F4F7"/>
<path fill-rule="evenodd" clip-rule="evenodd" d="M-74 -39H40V75H-74V-39Z" fill="#2E3F7B"/>
<path fill-rule="evenodd" clip-rule="evenodd" d="M31.4936 15.0998C30.6467 16.5422 29.8938 17.2318 29.1729 17.6393C28.6092 17.9534 27.8871 18.2976 26.4458 18.3609C24.8785 18.4229 23.9056 18.1101 22.1509 17.8274C19.7681 17.4826 17.4787 17.3886 15.0018 18.1728C13.1838 18.7677 12.1174 19.8962 12.1174 19.8962C12.1174 19.8962 13.9993 15.4132 14.4068 14.6296C15.1899 13.031 17.6975 11.8079 21.1467 11.8079C24.2504 11.8079 25.661 12.5602 28.2011 12.5602C31.9945 12.5602 33.0597 11.3058 33.0597 11.3058C32.9041 11.8085 32.1199 14.0654 31.4936 15.0998ZM8.85811 27.4208C8.9829 27.1701 9.23365 26.7933 9.51635 26.6064C11.4905 25.3207 14.9397 24.6624 20.0502 25.0699C23.562 25.352 25.3801 25.1634 27.1354 23.0325C28.5773 21.3079 29.643 18.6116 29.643 18.6116C29.643 18.6116 29.1107 19.0191 27.3862 19.3326C26.6652 19.4585 25.881 19.426 25.2848 19.3947C23.6862 19.3326 22.6838 18.9872 20.0496 18.7997C16.507 18.5489 13.5291 19.6141 12.2121 20.7425C11.8046 21.0565 11.4592 21.4321 11.2717 21.8088C10.3302 23.6269 9.51577 25.6022 9.01365 26.7306C8.82558 27.1701 8.85811 27.4208 8.85811 27.4208Z" fill="#DA9E38"/>
<path fill-rule="evenodd" clip-rule="evenodd" d="M9.48381 26.6062C9.2017 26.7931 8.98228 26.9818 8.88884 27.2645C8.76287 27.64 9.1396 28.1102 9.60978 28.267C10.1432 28.455 10.8328 28.581 11.898 28.581C13.1837 28.581 13.8106 28.3291 13.8106 28.3291C13.8106 28.3291 14.0927 27.6081 14.3754 26.9812C14.5623 26.511 15.0017 25.5086 15.2211 25.0059C12.6822 25.2259 10.7696 25.7593 9.48381 26.6062Z" fill="#884C2C"/>
</g>
<defs>
<clipPath id="clip0">
<rect width="40" height="40" fill="white"/>
</clipPath>
</defs>
</svg>
