<svg width="40" height="40" viewBox="0 0 40 40" fill="none" xmlns="http://www.w3.org/2000/svg">
<rect width="40" height="40" fill="#169CD9"/>
<path fill-rule="evenodd" clip-rule="evenodd" d="M20.5 12.101V13H19.313V12.101H18.415V10.915H19.313V10H20.5V10.915H21.416V12.101H20.5ZM15.678 13.191C15.461 13.066 15.211 13 14.961 13C14.711 13 14.461 13.066 14.244 13.191C14.027 13.317 13.844 13.5 13.719 13.716C13.594 13.932 13.527 14.183 13.527 14.433C13.527 14.683 13.594 14.934 13.719 15.151C13.844 15.367 14.027 15.55 14.244 15.675C14.461 15.8 14.711 15.867 14.961 15.867C15.211 15.867 15.461 15.8 15.678 15.675C15.895 15.55 16.078 15.366 16.203 15.151C16.328 14.934 16.395 14.683 16.395 14.433C16.395 14.183 16.328 13.933 16.203 13.716C16.078 13.499 15.895 13.317 15.678 13.191ZM18.943 13.191C18.726 13.066 18.476 13 18.226 13C17.976 13 17.726 13.066 17.509 13.191C17.292 13.317 17.109 13.5 16.984 13.716C16.859 13.933 16.792 14.183 16.792 14.433C16.792 14.683 16.859 14.934 16.984 15.151C17.109 15.367 17.292 15.55 17.509 15.675C17.725 15.8 17.976 15.867 18.226 15.867C18.476 15.867 18.726 15.8 18.943 15.675C19.16 15.55 19.343 15.366 19.468 15.151C19.593 14.934 19.66 14.683 19.66 14.433C19.66 14.183 19.593 13.933 19.468 13.716C19.343 13.499 19.16 13.317 18.943 13.191ZM22.208 13.191C21.991 13.066 21.741 13 21.491 13C21.241 13 20.991 13.066 20.774 13.191C20.557 13.317 20.374 13.5 20.249 13.716C20.124 13.933 20.057 14.183 20.057 14.433C20.057 14.683 20.124 14.934 20.249 15.151C20.374 15.367 20.557 15.55 20.774 15.675C20.991 15.8 21.241 15.867 21.491 15.867C21.741 15.867 21.991 15.8 22.208 15.675C22.425 15.55 22.608 15.366 22.733 15.151C22.858 14.934 22.925 14.683 22.925 14.433C22.925 14.183 22.858 13.933 22.733 13.716C22.607 13.5 22.424 13.317 22.208 13.191ZM25.472 13.191C25.255 13.066 25.006 13 24.755 13C24.505 13 24.255 13.066 24.038 13.191C23.821 13.317 23.638 13.5 23.513 13.716C23.388 13.932 23.321 14.183 23.321 14.433C23.321 14.683 23.388 14.934 23.513 15.151C23.638 15.367 23.821 15.55 24.038 15.675C24.255 15.8 24.505 15.867 24.755 15.867C25.005 15.867 25.255 15.8 25.472 15.675C25.689 15.55 25.872 15.366 25.997 15.151C26.122 14.934 26.189 14.683 26.189 14.433C26.189 14.183 26.122 13.933 25.997 13.716C25.872 13.5 25.689 13.317 25.472 13.191ZM15 19H24.773V17H15V19ZM7 20V27H9.495V24.624L11.585 27H14.847L11.409 23.205L14.278 20H11.634L9.494 22.39V20H7ZM15 20V27H21.425V25.053H17.494V20H15ZM22.168 20V27H24.663V21.903L26.319 27H28.849L30.505 21.903V27H33V20H28.771L27.584 23.653L26.397 20H22.168Z" fill="white"/>
</svg>
