<svg width="40" height="40" viewBox="0 0 40 40" fill="none" xmlns="http://www.w3.org/2000/svg">
<rect width="40" height="40" fill="#FDC43D"/>
<path d="M13.6363 9.51371C13.796 9.15731 14.2056 9.00222 14.5689 9.00222C18.3758 9.00002 27.3756 9 27.3756 9C28.0281 9.0165 29.2262 8.9714 29.864 9.1562C31.0003 9.42679 31.9992 10.2551 32.4684 11.3441C33.0128 12.7092 33.1478 14.2469 32.8329 15.689C32.4864 17.4182 31.4581 18.9428 30.1678 20.1C28.7942 21.3188 26.0774 22.1999 24.0007 22.1999C24.0007 22.1999 20.6258 22.1999 18.3758 22.1999C18.3758 22.1999 18.2172 22.3198 17.9719 22.3495C17.0416 24.6231 15.938 26.5294 15.0009 28.7998C15.0617 29.1628 15.6759 29.3421 15.9706 29.8547C16.1124 30.1011 16.0843 30.2012 16.055 30.3981C15.9605 30.8139 15.3407 31.0075 14.9492 30.9998C11.9669 30.9976 8.98343 30.9998 6 30.9976C7.80445 26.6779 9.65165 22.3747 11.4685 18.0584C12.4585 15.7 13.4777 13.3559 14.4497 10.9899C14.4148 10.7446 14.2427 10.5631 14.0199 10.4817C13.6588 10.3387 13.4541 9.8701 13.6363 9.51371ZM22.662 11.3903C21.4796 14.17 20.3085 16.9584 19.1228 19.7392C19.9407 19.7062 20.7742 19.803 21.5741 19.583C22.545 19.341 23.3943 18.7228 24.0344 17.9528C24.9277 16.8803 25.5273 15.5163 25.5487 14.0985C25.5374 13.2559 25.2595 12.3374 24.5519 11.8303C24.0085 11.4255 23.3156 11.3441 22.662 11.3903Z" fill="#DC2C2B"/>
</svg>
