<svg width="40" height="40" viewBox="0 0 40 40" fill="none" xmlns="http://www.w3.org/2000/svg">
<rect width="40" height="40" fill="#B8CF53"/>
<path d="M19.0182 10.0015C16.1135 10.0015 14.2321 10.1668 12.8668 10.6917C10.577 11.6175 8.99492 13.561 8.99492 16.1119C8.99492 18.236 9.94888 19.7739 12.7061 21.5459C15.6505 23.3945 16.2388 24.0066 16.2388 25.1268C16.2388 26.3449 15.0843 27.7359 12.1178 27.7359C11.0827 27.7359 9.52276 27.5844 8.52604 27.3319L8.05127 27.208C7.78588 27.9456 7.1843 29.6916 7 30.3251L7.47035 30.4705C8.3668 30.7689 10.4944 31 12.019 31C17.0896 31 20.1151 27.8201 20.1151 24.4917C20.1151 22.4442 19.2216 20.8895 16.1946 18.9292C14.6789 17.962 13.9048 17.3331 13.4359 16.848C13.0526 16.3399 13.0128 15.962 13.0128 15.5626C13.0128 15.1815 13.0924 14.7423 13.3357 14.421C13.5966 14.0246 14.0758 13.7706 14.7261 13.561C15.3955 13.3314 16.631 13.3253 18.5596 13.3253H20.354L21.6368 10H19.0182V10.0015ZM32.58 10.0015H23.5624L22.2811 13.3268H25.2698C27.2794 13.3268 27.6687 13.2809 28.1729 13.2809C27.4446 15.0117 23.0478 26.6326 23.0478 26.6326H26.7678C26.7678 26.6326 32.3309 12.1669 32.9206 10.6504C33.0843 10.3106 33.0062 10.0015 32.58 10.0015Z" fill="white"/>
</svg>
