<svg width="40" height="40" viewBox="0 0 40 40" fill="none" xmlns="http://www.w3.org/2000/svg">
<g clip-path="url(#clip0)">
<rect width="40" height="40" fill="#F2F4F7"/>
<path d="M11.4111 12.5448L16.7514 18.9258L13.8639 20.7885L11.8088 19.8866L9 21.5082L13.0454 23.9047L13.0981 28.6064L15.9069 26.9847L15.8373 24.6745L19.2103 23.1847L22.0662 31L24.7419 29.4552L24.7252 20.0006L28.5738 17.7787C29.7414 17.1045 30.1479 15.5875 29.4738 14.4198C28.7996 13.2521 27.2826 12.8456 26.1149 13.5198L22.2664 15.7417L14.0868 11L11.4111 12.5448ZM13.9221 12.9879L14.0857 12.8935L22.2653 17.6352L26.9345 14.9394C27.3341 14.7087 27.8234 14.8398 28.0541 15.2394C28.2848 15.639 28.1537 16.1283 27.7541 16.359L23.0849 19.0548L23.1016 28.5094L22.938 28.6039L20.082 20.7885L14.6835 23.9054L14.6702 22.9666L13.8639 22.4857L19.2624 19.3689L13.9221 12.9879Z" fill="#D5DDE1"/>
<path d="M13.0862 21.9433L14.6473 24.6473L19.5146 21.8372L22.4921 29.4922L23.5737 28.8677L23.6126 20.1923L27.9391 17.6944L28.937 15.6761L27.4595 14.3659L22.28 16.6352L13.8944 12.1026L12.8127 12.7271L17.9535 19.1331L13.0862 21.9433Z" fill="#D5DDE1"/>
<path fill-rule="evenodd" clip-rule="evenodd" d="M-67 -71H115V111H-67V-71Z" fill="#393B8F"/>
<path fill-rule="evenodd" clip-rule="evenodd" d="M-52.2666 12.3907H-45.6648C-43.986 12.3907 -42.3072 12.8383 -42.3072 14.6285C-42.3072 17.3138 -47.3426 17.3138 -47.3426 18.3212C-47.3426 19.3287 -41.6359 19.8886 -41.1883 25.3706H-52.2666V24.924C-51.8191 24.924 -51.1477 24.8117 -51.1477 24.3632V13.622C-51.1477 13.1744 -51.8191 12.9506 -52.2666 12.9506V12.3907ZM-48.2377 13.1744C-46.6713 13.062 -45.1049 13.622 -45.1049 15.1884C-45.2172 17.0909 -48.0139 17.3138 -47.9025 18.4336C-47.7902 19.1049 -44.2098 22.1273 -44.5459 24.5869H-48.2386V13.1744H-48.2377ZM-40.2932 19.8886C-40.4056 18.546 -40.1809 16.8672 -39.3981 15.7483C-38.8382 14.8532 -38.2792 14.5171 -37.4956 14.0695C-36.2643 13.622 -34.6979 13.622 -33.4667 14.1819C-32.7767 14.5393 -32.1674 15.0345 -31.6765 15.6369C-30.3338 17.7632 -29.9986 20.338 -31.0051 22.91C-31.4527 23.9166 -31.9002 24.3651 -32.9077 25.1487C-33.6904 25.7077 -35.4816 25.7077 -36.2653 25.4839C-37.2718 25.2611 -38.0555 24.7002 -38.7268 23.8061C-39.7343 22.4625 -40.0694 21.456 -40.2932 19.8886ZM-38.1669 17.2033C-38.2792 16.532 -37.9431 14.9646 -36.9356 14.9646C-35.3692 14.8532 -34.4741 16.4196 -33.8028 17.6509C-33.0077 19.0501 -32.5839 20.6294 -32.5716 22.2387C-32.5716 22.7996 -32.7953 23.6937 -33.1315 24.0289C-34.0266 24.4774 -35.2569 23.8061 -36.0405 22.9091C-36.4881 22.3501 -37.048 21.2313 -37.2718 20.7828C-37.7193 19.8886 -38.0555 18.4336 -38.1669 17.2033ZM-28.5436 19.3287C-27.4238 17.4261 -27.0886 16.8672 -25.8583 15.8597L-26.1935 15.1884C-26.1935 15.1884 -26.4173 14.7399 -26.9772 14.8522V14.2923H-23.5082L-19.0317 25.3706H-22.1655L-25.5222 16.531C-26.7525 18.3212 -27.7599 21.5664 -25.8583 25.3706H-29.7739C-29.7748 22.4625 -29.5501 21.5664 -28.5436 19.3287ZM-18.808 14.2923H-9.85603L-11.0873 16.531C-11.4225 15.635 -11.87 15.076 -12.9889 15.076H-15.1152V25.2601H-17.9129V15.7483C-17.9129 15.077 -18.3614 14.9646 -18.808 14.8532V14.2923ZM-10.8625 22.9091C-10.9749 21.456 -10.6397 19.8886 -9.63225 18.7697C-9.07234 17.986 -8.2896 17.3147 -7.72969 16.8672C-7.28214 16.532 -6.94695 16.4196 -6.83459 15.8607C-6.83459 15.4131 -6.94695 15.3007 -7.16978 14.9646C-7.39355 14.7408 -7.84111 14.8532 -8.06488 14.7408V14.2933H-4.59589L-0.344166 25.2611H-3.14182L-4.03693 23.0224C-4.37212 23.4709 -4.2607 23.9166 -4.59589 24.2527C-4.93108 25.0364 -5.60241 25.2611 -6.16327 25.7077C-7.39355 26.0429 -8.51243 26.0429 -9.40847 25.3725C-9.63225 25.1478 -10.3045 25.1478 -10.8625 22.9091ZM-8.51337 20.5599C-8.62479 19.5534 -8.17818 19.1049 -8.06582 18.4345C-7.84205 18.0993 -7.17072 17.2033 -6.27562 16.8672C-5.60429 18.6574 -4.15023 21.3436 -4.93297 23.47C-5.15675 23.8051 -5.71666 24.1413 -6.16421 23.9166C-7.28214 23.9156 -8.2896 22.3501 -8.51337 20.5599ZM40.0524 24.3641H41.2827C41.2827 21.9026 41.5074 19.1049 43.0729 17.2033C44.0794 16.0835 45.4221 15.077 46.4296 14.4056C47.2132 13.622 47.3256 13.622 47.7741 12.6154H46.9904V11.9441H52.2496V24.3641H53.4799L51.5764 27.1618C51.2412 26.2676 51.5764 25.1478 49.1167 25.1478H44.1927C42.1769 25.1478 41.8417 26.2676 41.7312 27.2741L40.0524 24.3641ZM44.7508 20.2238C44.9736 18.2098 45.086 17.7623 45.6449 16.6434C46.0934 15.8597 47.996 13.622 49.0034 12.9506V24.3641H45.4221C44.8641 23.1338 44.7508 21.6788 44.7508 20.2238ZM54.7111 14.1809H58.7391V18.545L62.3204 19.7753L62.4309 14.1809H65.4533V25.1478H62.4309V20.6723L58.7391 19.4411V25.1478H55.3824V15.1884C55.3824 14.8522 54.8216 14.7399 54.7111 14.7399V14.1809ZM66.9083 19.8886C66.5712 17.8746 67.3549 15.4122 69.3698 14.4047C71.719 13.1744 74.5166 13.8457 75.8593 15.8597L73.174 16.9786C72.7255 15.5236 71.3838 14.7399 70.3763 15.1884C69.2565 15.6359 68.9213 17.3138 69.2565 18.7688H72.9483V19.7753H69.3689C69.704 21.3427 71.2705 24.924 73.0607 24.8117C74.5157 24.6993 74.628 22.3501 74.4033 21.2303H77.3133C77.3133 23.9156 74.5157 25.8182 72.277 25.7058C69.1451 25.3706 67.2444 23.1338 66.9083 19.8886ZM78.2094 14.2923H88.1697V25.2601H85.035V15.2998H82.0145V25.2601H78.8817V15.5236C78.8817 15.1884 78.4332 15.076 78.2103 14.8522V14.2923H78.2094ZM98.0159 25.3706C97.1217 26.042 95.6667 25.9315 93.8755 24.924C93.8755 25.9305 93.8755 26.938 93.6527 28.0569C93.2042 30.6298 92.7567 31.1897 91.414 33.3142L90.6322 34.3226C90.6322 34.3226 89.7362 33.7617 89.7362 33.6494C90.7427 31.3002 91.5264 29.7347 91.1912 26.6009C91.0788 24.2499 89.959 22.1254 89.6238 19.7744C89.5134 17.8727 89.401 16.0816 90.0723 14.18H93.3185C93.0937 14.5152 92.6471 15.1874 92.5348 15.8588C93.9898 14.18 96.1161 13.9562 97.5711 14.7389C98.8014 15.2989 99.9203 17.0891 100.144 18.3193C100.477 19.8886 100.255 24.2517 98.0159 25.3706ZM92.0844 18.8811C92.0844 17.4261 92.4196 16.3073 93.3166 15.8597C94.9944 14.9637 96.6732 17.5385 97.0084 18.8811C97.6797 20.8951 98.0149 24.8126 95.8886 24.925C93.8755 25.0354 92.0844 20.7828 92.0844 18.8811ZM20.1336 34.7701C28.3019 34.7701 34.9037 28.0578 34.9037 19.9991C34.9037 11.8308 28.3019 5.22803 20.1336 5.22803C12.0768 5.22803 5.36257 11.8308 5.36257 19.9991C5.36257 28.0578 12.0768 34.7701 20.1336 34.7701Z" fill="white"/>
<path fill-rule="evenodd" clip-rule="evenodd" d="M20.1336 33.5406C27.6305 33.5406 33.6734 27.3844 33.6734 19.9999C33.6734 12.5029 27.6305 6.46008 20.1336 6.46008C12.748 6.46008 6.59375 12.5029 6.59375 19.9999C6.59281 27.3844 12.7471 33.5406 20.1336 33.5406Z" fill="#393B8F"/>
<path fill-rule="evenodd" clip-rule="evenodd" d="M20.1335 32.645C27.182 32.645 32.8896 26.9392 32.8896 20.0002C32.8896 12.9508 27.182 7.24408 20.1335 7.24408C13.1955 7.24408 7.48785 12.9508 7.48785 20.0002C7.48785 26.9392 13.1955 32.645 20.1335 32.645Z" fill="white"/>
<path fill-rule="evenodd" clip-rule="evenodd" d="M18.2308 17.0909C18.3422 16.5319 17.7823 16.3072 17.4471 16.3072L20.9161 15.1884L20.4686 16.9786H21.1399L21.9236 14.0685C22.1473 13.3972 21.8121 12.7259 20.2457 12.6135H26.2877C30.428 12.6135 30.0918 17.09 26.1753 17.4252C28.3016 17.5375 31.883 18.9916 31.883 21.117C31.883 23.0205 29.4215 25.1468 23.3786 25.1468H14.0914C14.8751 24.924 15.7702 24.8116 16.1054 23.8042L18.008 17.7613C16.3292 17.7613 13.7562 18.3203 12.3012 18.9925C11.1823 19.6639 10.2872 20.559 10.511 21.9016C10.6234 23.2443 12.0774 24.1403 13.3087 24.3631V24.586C11.4061 24.3631 8.83317 23.8042 8.49704 22.2368C7.37627 17.986 16.3282 17.0909 18.2308 17.0909ZM26.2877 15.4121C25.8392 16.4186 24.4974 16.8671 23.2662 17.0909L24.3851 13.3982C25.9515 13.2858 26.8466 14.1809 26.2877 15.4121ZM29.5329 21.4559C29.1977 23.2452 25.7287 24.1412 24.3841 24.2517C28.7492 23.2452 29.6433 19.5524 24.9441 17.8746C29.3081 18.6573 29.7566 20.3361 29.5329 21.4559ZM25.504 18.7697C27.4075 20.3371 25.504 24.0289 21.2522 24.4764L23.1548 17.7622C24.3851 17.986 24.945 18.3212 25.504 18.7697ZM18.1184 24.4764L20.2448 17.6499H20.9161L18.9021 24.4764H18.1184Z" fill="#393B8F"/>
</g>
<defs>
<clipPath id="clip0">
<rect width="40" height="40" fill="white"/>
</clipPath>
</defs>
</svg>
