<svg width="40" height="40" viewBox="0 0 40 40" fill="none" xmlns="http://www.w3.org/2000/svg">
<rect width="40" height="40" fill="#C52032"/>
<path d="M23.9131 9.44961C23.6167 9.18681 23.1055 8.79799 22.7755 8.58319L21.3907 8.09119C21.0043 8.04079 20.3707 8 19.9819 8H4.45749C4.06749 8 3.89347 8.29402 4.06747 8.65402C4.06747 8.65402 13.1647 28.934 13.3819 29.2676C14.0947 30.3548 15.8083 31.8092 15.8083 31.8092C16.1851 31.9136 16.8103 32 17.1991 32H31.4611C31.8511 32 32.4739 31.9088 32.8483 31.796C32.8483 31.796 33.3403 31.6484 33.6595 30.902L36.4003 20C36.4063 19.982 23.9131 9.44961 23.9131 9.44961ZM24.3595 14.2484C24.3775 14.2184 24.3847 14.1776 24.4075 14.1476C24.4231 14.1236 24.4435 14.1116 24.4603 14.0912C24.4675 14.0768 24.4747 14.0624 24.4831 14.048C24.5575 13.898 24.6667 13.826 24.7843 13.7864C25.2163 13.568 25.7311 14.0768 25.5739 14.5556C25.5787 14.5916 25.5739 14.6264 25.5727 14.6624C25.5727 14.6804 25.5739 14.696 25.5727 14.714C25.5667 14.7644 25.5511 14.8136 25.5319 14.8604C25.4611 15.074 25.2943 15.2504 25.0015 15.2504H24.8263C24.8131 15.2504 24.8023 15.242 24.7903 15.2408C24.6007 15.2372 24.4507 15.1472 24.3523 15.0128C24.3511 15.0116 24.3499 15.0092 24.3487 15.0068C24.3019 14.9432 24.2707 14.8724 24.2491 14.7968C24.2455 14.78 24.2395 14.7668 24.2371 14.7512C24.1975 14.5724 24.2359 14.3864 24.3595 14.2484ZM23.6623 18.8708C23.7067 18.6368 23.6731 17.9732 23.7499 17.4272C23.8651 16.6016 24.0799 16.0412 24.3499 15.8024C24.6223 15.5564 24.8707 15.56 25.0243 15.7028C25.1491 15.8204 25.0171 16.3376 24.9559 16.5992C24.9055 16.8104 24.8299 17.4368 24.7867 17.996C24.6931 19.2188 24.6667 19.2836 24.2059 19.4912C23.9035 19.6256 23.8231 19.6232 23.7115 19.4732C23.6407 19.3748 23.6179 19.1024 23.6623 18.8708ZM19.8931 18.308C19.9459 18.512 19.8415 18.6896 19.4659 19.034C19.1779 19.2992 19.0543 19.4324 18.9703 19.7252C18.9703 19.7444 18.9775 19.754 18.9751 19.7744C18.9259 20.3228 18.8827 20.8712 18.8755 21.4244C18.8707 21.8696 18.4699 22.0496 18.1315 21.9824C17.9275 22.0088 17.7187 21.9728 17.6491 21.8444C17.5831 21.722 17.6443 20.984 17.7463 20.2448C17.7583 20.0876 17.7607 19.9292 17.7739 19.7744C17.7835 19.6688 17.8183 19.58 17.8651 19.502C17.9431 19.0688 18.0259 18.7148 18.0919 18.6236C18.2515 18.3992 19.3159 18.0056 19.6951 18.0284C19.7659 18.0332 19.8547 18.158 19.8931 18.308ZM16.9531 21.8324C16.8835 22.1492 16.7827 22.436 16.6423 22.7252C16.3075 23.4236 15.2731 22.814 15.6067 22.1204C15.6523 22.0244 15.6871 21.9284 15.7159 21.83C15.7699 21.0932 15.8899 20.1776 15.9991 20C16.3555 19.4144 17.1991 18.8 17.1991 20C17.1991 20.2412 17.0731 20.8868 16.9243 21.4952C16.9627 21.5948 16.9819 21.7052 16.9531 21.8324ZM16.6255 18.0248C16.4179 17.8532 16.5199 17.6108 16.7407 17.3108C17.0707 16.8644 17.4319 16.7168 17.6095 16.9568C17.7955 17.2076 17.6815 17.828 17.3011 18.0488C17.0419 18.1976 16.8103 18.176 16.6255 18.0248ZM14.4439 24.1064C14.1103 25.8692 14.1151 26 13.6003 26H13.5055C13.3003 26.048 13.0891 25.994 12.9499 25.8596C12.6655 25.7804 12.4315 25.5176 12.5215 25.1492C12.5023 25.0808 12.4915 25.0112 12.4999 24.9236C12.5635 24.3488 12.5491 23.7776 12.5251 23.198C12.5203 23.0756 12.5515 22.982 12.5971 22.8992C12.5227 22.3412 12.4507 21.7664 12.4003 21.1976C12.2887 19.9556 12.2623 19.3556 12.1951 19.2224C12.1939 19.2224 12.1939 19.2248 12.1939 19.2248C12.1291 19.3208 12.0571 19.4096 11.9851 19.4996C11.9515 19.58 11.9155 19.6724 11.8711 19.7816C11.6935 20.2268 11.3335 21.0884 11.2003 21.1964C10.9747 21.3776 9.25027 21.23 10.5847 19.4924C10.5955 19.412 10.6255 19.3268 10.6831 19.244C10.8751 18.9608 11.1535 18.716 11.2615 18.3848C11.3419 18.14 11.4307 17.9048 11.5327 17.6672C11.5999 17.5124 11.7043 17.4308 11.8183 17.39C11.9035 17.1932 11.9947 16.988 12.0943 16.7744C12.2239 16.5008 12.4099 16.3808 12.6019 16.3856C12.9271 16.34 13.3111 16.5212 13.3495 16.946C13.3663 17.138 13.3735 17.3276 13.3747 17.5208C13.3747 17.678 13.3195 17.7944 13.2427 17.8868C13.2991 18.4376 13.3975 19.2224 13.4743 19.7144C13.6339 20.7392 13.5931 20.4968 13.6003 21.1952V22.3952L13.7947 21.5744C13.8655 21.2984 14.0479 20.5364 14.2027 19.88C14.5699 18.3116 14.9911 16.5656 15.4603 15.4892C15.6655 15.0164 16.5247 13.046 16.8019 12.3992C17.4343 10.9184 17.7067 10.508 18.1327 10.3832C18.3859 10.3088 18.5503 10.3436 18.7867 10.5164C19.1287 10.7696 19.3987 11.2292 19.0567 11.9252C19.0387 11.9852 19.0303 12.0452 19.0051 12.1028C18.9523 12.2312 18.8635 12.3188 18.7663 12.3812C18.6643 12.512 18.5455 12.6488 18.4015 12.7928C17.7919 13.4024 16.6951 15.4928 16.0015 17.5928C15.7795 18.2672 15.3679 19.1264 15.2287 19.8764C15.1831 20.12 14.9659 20.8436 14.9047 21.2564C14.8423 21.6692 14.7523 22.1492 14.7055 22.3208C14.6587 22.5032 14.5951 23.3096 14.4439 24.1064ZM29.2579 18.7316C28.8415 18.8396 27.4819 19.6808 26.8003 20C26.7595 20.0192 26.7079 20.0432 26.6647 20.0636C26.5975 20.1536 26.5135 20.2352 26.3851 20.2796C26.1031 20.3804 25.8511 20.5004 25.6243 20.702C25.4551 20.852 25.2655 20.8772 25.0915 20.8352C24.8479 20.96 24.6115 21.0836 24.4003 21.2024L23.3971 21.8516L23.2531 24.128C23.1991 24.974 23.1739 25.8548 23.1763 26.4884C23.2627 26.6132 23.2999 26.7716 23.2531 26.9624C23.2471 26.9888 23.2291 27.0116 23.2219 27.0368C23.2219 27.044 23.2243 27.0476 23.2243 27.0524C23.2231 27.1436 23.2147 27.2336 23.2111 27.326C23.2579 27.7736 23.2435 27.9848 23.1559 28.1204C23.0683 28.6064 22.4995 28.7372 22.1839 28.5164C21.6979 28.6292 21.1903 27.9752 21.6247 27.5036C21.8431 27.266 21.9823 27.0164 22.0699 26.7128C22.0867 26.2952 22.1143 25.8056 22.1551 25.2104C22.2547 23.7848 22.3183 22.616 22.2955 22.6136C22.2475 22.6112 21.2599 23.0972 20.2363 23.666C19.2835 24.3944 18.4111 25.25 17.4247 25.9316C17.3827 26.0024 17.3335 26.0672 17.2519 26.1212C16.8631 26.3768 16.5643 26.7284 16.2007 27.0056C16.1299 27.0776 16.0603 27.146 16.0003 27.2024C16.0003 27.2024 15.1267 27.6476 14.7955 27.0776C14.6719 26.8688 14.6707 26.7824 14.9779 26.462C15.0247 26.3648 15.0955 26.2736 15.2227 26.2088C15.2383 26.2016 15.2491 26.1884 15.2647 26.1824C15.2959 26.1548 15.3103 26.138 15.3439 26.1068C16.2367 25.2584 16.4107 24.932 18.4015 23.6036C18.5539 23.5016 18.7171 23.3888 18.8803 23.2784C19.5175 22.7528 20.1679 22.2464 20.8951 21.8372C21.4999 21.3728 21.8539 21.0548 21.5551 21.1388C21.3895 21.1856 21.0283 21.2156 20.7511 21.2036C20.0431 21.17 19.9039 20.8292 20.0707 19.5464C20.2255 18.3632 20.3743 18.0044 20.9203 17.4956C21.6571 16.814 22.2847 17.1632 21.6487 17.9012C21.3115 18.2912 21.2035 18.5732 21.0991 19.3172C20.9899 20.0948 21.1003 20.3528 21.4687 20.186C21.7711 20.0432 21.8839 19.6688 22.0711 18.1796C22.2139 17.0408 22.4179 16.6568 22.8631 16.6844C22.9939 16.6916 23.1271 16.778 23.1583 16.874C23.1895 16.9724 23.1223 17.8844 23.0095 18.8996C22.8967 19.9196 22.8367 20.7512 22.8763 20.7536C22.9159 20.7584 23.3575 20.5328 23.8579 20.2544C24.1639 20.0852 24.6859 19.814 25.2295 19.5368C25.4323 19.4108 25.6495 19.3016 25.8763 19.2104C25.9987 19.1504 26.1235 19.0868 26.2363 19.0316C27.4063 18.4592 27.6787 18.2768 27.5743 18.134C27.4855 18.014 27.4915 17.588 27.5935 16.8212C27.7603 15.5648 27.6667 15.4028 27.0871 15.9536C26.8411 16.19 26.7607 16.4384 26.6563 17.2712C26.5639 18.0164 26.4559 18.3824 26.2663 18.5972C25.9951 18.9044 25.5871 18.9704 25.4551 18.7256C25.4131 18.6488 25.4551 17.9528 25.5487 17.1836C25.6987 15.9536 25.7563 15.7496 26.0311 15.5036C26.2315 15.326 26.4919 15.2336 26.7619 15.248C27.0343 15.2624 27.2371 15.1916 27.3427 15.0416C27.3583 15.0176 27.4003 14.9648 27.4531 14.9012C27.4603 14.8664 27.4555 14.8328 27.4711 14.7968C27.5155 14.7008 27.5491 14.6 27.5707 14.4968C27.7735 13.7504 28.9303 14.0684 28.7275 14.816C28.7263 14.822 28.7227 14.8292 28.7215 14.834C28.7935 15.0944 28.7539 15.5036 28.7059 16.3664C28.6675 17.06 28.6891 17.6624 28.7539 17.7092C28.8187 17.7536 28.8559 17.7536 29.1991 17.606C29.5423 17.456 30.2263 17.2712 30.3583 17.3012C30.5911 17.3504 30.7939 17.5892 30.7855 17.8052C30.7771 18.0524 29.9587 18.554 29.2579 18.7316Z" fill="white"/>
</svg>
